<?xml version="1.0" encoding="UTF-8" standalone="no"?>
<!-- Created with Inkscape (http://www.inkscape.org/) -->

<svg
   xmlns:ns0="http://www.iki.fi/pav/software/textext/"
   xmlns:dc="http://purl.org/dc/elements/1.1/"
   xmlns:cc="http://creativecommons.org/ns#"
   xmlns:rdf="http://www.w3.org/1999/02/22-rdf-syntax-ns#"
   xmlns:svg="http://www.w3.org/2000/svg"
   xmlns="http://www.w3.org/2000/svg"
   xmlns:sodipodi="http://sodipodi.sourceforge.net/DTD/sodipodi-0.dtd"
   xmlns:inkscape="http://www.inkscape.org/namespaces/inkscape"
   inkscape:version="0.91 r13725"
   sodipodi:docname="ship_conventions.svg"
   id="svg8"
   version="1.1"
   viewBox="0 0 268.71481 144.3231"
   height="144.3231mm"
   width="268.71481mm">
  <sodipodi:namedview
     fit-margin-bottom="0"
     fit-margin-right="0"
     fit-margin-left="0"
     fit-margin-top="0"
     inkscape:object-paths="false"
     inkscape:window-maximized="1"
     inkscape:window-y="-8"
     inkscape:window-x="-8"
     inkscape:window-height="1017"
     inkscape:window-width="1920"
     showgrid="false"
     inkscape:current-layer="svg8"
     inkscape:document-units="mm"
     inkscape:cy="293.41532"
     inkscape:cx="231.22922"
     inkscape:zoom="0.90509668"
     inkscape:pageshadow="2"
     inkscape:pageopacity="0.0"
     borderopacity="1.0"
     bordercolor="#666666"
     pagecolor="#ffffff"
     id="base" />
  <defs
     id="defs2">
    <pattern
       id="EMFhbasepattern"
       patternUnits="userSpaceOnUse"
       width="6"
       height="6"
       x="0"
       y="0" />
    <pattern
       id="EMFhbasepattern-1"
       patternUnits="userSpaceOnUse"
       width="6"
       height="6"
       x="0"
       y="0" />
    <pattern
       id="EMFhbasepattern-5"
       patternUnits="userSpaceOnUse"
       width="6"
       height="6"
       x="0"
       y="0" />
  </defs>
  <metadata
     id="metadata5">
    <rdf:RDF>
      <cc:Work
         rdf:about="">
        <dc:format>image/svg+xml</dc:format>
        <dc:type
           rdf:resource="http://purl.org/dc/dcmitype/StillImage" />
        <dc:title></dc:title>
      </cc:Work>
    </rdf:RDF>
  </metadata>
  <g
     transform="translate(-4.7592418,-77.980137)"
     id="layer1"
     inkscape:groupmode="layer"
     inkscape:label="Layer 1">
    <path
       style="fill:#4d4d4d;stroke-width:0.26458332"
       d="m 228.57849,214.3711 c -3.54934,-0.87337 -6.64125,-3.15539 -8.56423,-6.32096 -0.51839,-0.85335 -0.94252,-1.61752 -0.94252,-1.69816 0,-0.0806 -0.12334,-0.47101 -0.27409,-0.86751 -0.2676,-0.70384 -0.29886,-0.6716 -1.32019,1.36141 -2.91431,5.8011 -9.27292,8.78641 -15.78478,7.41079 -2.33948,-0.49421 -3.57266,-1.0241 -5.45734,-2.34497 -1.76786,-1.239 -3.95655,-3.98681 -4.6061,-5.78277 l -0.44581,-1.23263 -0.90368,1.86823 c -2.23477,4.62007 -7.40114,7.82811 -12.66415,7.86377 -1.61335,0.0109 -4.53916,-0.56866 -6.03657,-1.19582 -3.35527,-1.4053 -6.35621,-4.708 -7.63562,-8.40341 -0.12542,-0.36228 -0.42433,0.0182 -1.21552,1.5471 -1.45468,2.81111 -2.61884,4.13289 -4.84577,5.50186 -2.97257,1.82736 -4.25497,2.16269 -8.13122,2.12625 -2.88766,-0.0272 -3.51597,-0.1162 -4.95201,-0.70177 -3.51484,-1.43326 -6.85538,-4.64401 -7.93398,-7.62571 l -0.44138,-1.22018 -1.00583,2.00217 c -1.65266,3.28972 -4.65176,5.89412 -8.15638,7.08295 -1.13709,0.38572 -2.17819,0.48782 -4.7625,0.46705 -3.02928,-0.0243 -3.46363,-0.092 -5.16716,-0.80459 -3.47261,-1.45263 -6.35357,-4.26048 -7.69076,-7.49558 l -0.55479,-1.34224 -0.82821,1.68234 c -1.26472,2.569 -2.56327,4.08193 -4.70177,5.47795 -2.70692,1.7671 -4.817579,2.38262 -8.155509,2.37835 -4.339195,-0.006 -7.024282,-1.08489 -9.953064,-4.00089 -1.746836,-1.7392 -2.929742,-3.48742 -3.265851,-4.82658 -0.192497,-0.76696 -0.6933,-0.94934 -0.6933,-0.25249 0,0.59214 -1.448731,3.13168 -2.565506,4.49719 -1.212716,1.4828 -3.928819,3.20958 -6.238363,3.96607 -1.480767,0.48503 -2.471561,0.61937 -4.548297,0.6167 -4.1881,-0.005 -7.014076,-1.09456 -9.890093,-3.81179 -1.436966,-1.35764 -3.480657,-4.44735 -3.480657,-5.26217 0,-0.85316 -0.401313,-0.40543 -1.322917,1.47592 -1.1502,2.34802 -3.009935,4.28201 -5.400227,5.61584 -2.01271,1.12314 -5.117542,1.98148 -7.167481,1.98148 -3.440655,0 -7.713566,-1.78151 -10.173856,-4.2418 -1.327788,-1.32779 -3.187601,-4.30693 -3.187601,-5.10606 0,-0.71425 -0.451026,-0.49757 -0.60906,0.29261 -0.222289,1.11144 -2.61704,4.61317 -3.781598,5.52964 -2.637741,2.07582 -6.54981,3.53216 -9.476144,3.52768 -2.056786,-0.003 -5.1673791,-0.85392 -7.1251546,-1.94877 -1.642431,-0.9185 -1.7622096,-1.04754 -1.7622096,-1.89857 0,-0.50221 0.072111,-0.9131 0.1602457,-0.9131 0.088131,0 0.5207494,0.30335 0.9613688,0.67411 1.6382471,1.37849 5.3916017,2.7497 7.5574067,2.76094 2.602113,0.0135 6.236017,-1.36771 8.603117,-3.26996 2.1945,-1.76355 4.254087,-5.77734 4.527391,-8.82313 0.06848,-0.76318 0.204813,-0.9964 0.583153,-0.99764 0.406622,-0.001 0.588934,0.42342 1.03288,2.40633 1.222858,5.46197 5.016355,9.20185 10.472659,10.32464 2.184601,0.44954 2.373775,0.44948 4.497917,-0.002 5.6754,-1.20492 9.404737,-5.07371 10.56224,-10.95718 0.248013,-1.26061 0.429941,-1.64161 0.783897,-1.64161 0.337968,0 0.508388,0.29997 0.638849,1.12448 0.689416,4.35713 2.764881,7.72895 6.051539,9.8314 4.523112,2.8934 9.769316,2.7865 14.301985,-0.29144 2.991178,-2.03118 5.003493,-5.41954 5.606425,-9.44015 0.162017,-1.08041 0.265286,-1.24162 0.75099,-1.17233 0.450398,0.0643 0.579406,0.29222 0.64437,1.13866 0.219018,2.85376 1.835241,6.13764 4.054397,8.23782 4.577591,4.33218 10.898441,4.83663 16.123098,1.28673 2.88701,-1.96157 4.66943,-4.67528 5.43045,-8.26778 0.41882,-1.97707 0.52051,-2.18281 1.0788,-2.18281 0.54323,0 0.6164,0.12623 0.6164,1.0633 0,1.2743 1.00351,4.26207 1.91814,5.71093 2.38184,3.77308 6.47176,6.08495 10.91415,6.16934 6.25165,0.11877 11.81003,-4.59783 12.83717,-10.89305 0.30166,-1.84884 0.39294,-2.05052 0.92811,-2.05052 0.5251,0 0.61451,0.17543 0.7754,1.52136 0.58353,4.88164 4.06333,9.11854 8.86775,10.79711 3.78826,1.32353 8.00386,0.64905 11.48956,-1.83829 2.69814,-1.92536 4.61827,-5.0041 5.17484,-8.29737 0.3156,-1.86738 0.34459,-1.91822 1.09391,-1.91822 0.7173,0 0.76972,0.0697 0.76972,1.02386 0,1.15395 0.85512,4.0392 1.49766,5.05324 2.77502,4.37944 6.42113,6.66021 10.74833,6.72343 2.98113,0.0436 4.1889,-0.2037 6.44834,-1.32011 2.28282,-1.12796 4.66901,-3.49816 5.75366,-5.71511 0.71325,-1.45783 0.76126,-1.61747 1.27627,-4.24396 0.26078,-1.32998 0.37564,-1.52135 0.91307,-1.52135 0.48983,0 0.61846,0.14785 0.63299,0.7276 0.12007,4.79251 3.7596,9.63958 8.58072,11.42768 1.08418,0.40211 2.2586,0.60277 3.70417,0.6329 2.89026,0.0602 4.13034,-0.19065 6.34059,-1.28275 3.58381,-1.7708 6.31433,-5.40818 6.99832,-9.32262 0.32586,-1.86486 0.3566,-1.91823 1.10491,-1.91823 0.7173,0 0.76972,0.0697 0.76972,1.02387 0,2.49531 1.77824,6.10592 4.09865,8.32204 1.11905,1.06876 3.45421,2.53115 3.64774,2.28439 0.0522,-0.0665 0.8011,-1.36625 1.66433,-2.88831 2.14375,-3.77992 2.58236,-4.54358 5.40098,-9.40345 4.29731,-7.40945 6.41616,-11.08265 7.02062,-12.17083 0.32333,-0.58209 1.59334,-2.78474 2.82224,-4.89479 1.22891,-2.11006 2.91712,-5.01145 3.75158,-6.44754 0.83446,-1.43608 1.46112,-2.66714 1.39258,-2.73569 -0.18682,-0.18682 -9.25785,1.28691 -11.80705,1.91825 -0.80037,0.19821 -1.87193,0.43219 -2.38125,0.51995 -0.50933,0.0877 -1.64042,0.31946 -2.51355,0.5149 -0.87312,0.19544 -2.48046,0.54199 -3.57187,0.77011 -1.09141,0.22812 -3.05594,0.64675 -4.36563,0.9303 -1.30968,0.28355 -3.39328,0.71015 -4.6302,0.948 -1.23693,0.23786 -3.0824,0.60653 -4.10105,0.81928 -1.01864,0.21275 -2.32833,0.43197 -2.91041,0.48716 -0.58209,0.0552 -2.07037,0.28596 -3.30729,0.51284 -4.68415,0.85917 -15.43367,1.95397 -21.03438,2.14228 -2.03729,0.0685 -6.6212,0.27894 -10.18646,0.46766 -8.57125,0.4537 -84.576928,0.4335 -109.669785,-0.0291 -9.895417,-0.18244 -21.444479,-0.38544 -25.664583,-0.4511 -4.220104,-0.0657 -11.363853,-0.24499 -15.874999,-0.39851 -4.511146,-0.15342 -11.119114,-0.37588 -14.684375,-0.49427 -3.5652601,-0.11838 -6.7501801,-0.22715 -7.0776038,-0.24169 -0.4101076,-0.0182 -0.5953124,-0.19108 -0.5953124,-0.55562 0,-0.42837 0.1763888,-0.52916 0.9260416,-0.52916 h 0.9260417 v -7.42036 -7.42036 L 5.9618929,165.545 c -0.3571875,-0.35719 -0.7739062,-0.64944 -0.9260416,-0.64944 -0.1521354,0 -0.2766095,-0.23812 -0.2766095,-0.52916 0,-0.78119 0.8947185,-0.66783 1.9140557,0.2425 l 0.8640692,0.77168 0.1322917,7.88847 0.1322916,7.88846 1.0583333,-0.0727 c 0.5820834,-0.04 4.5111457,0.11849 8.7312497,0.35223 4.220104,0.23374 12.170357,0.48337 17.667227,0.55474 l 9.99431,0.12976 -0.02011,-8.39469 -0.02011,-8.39469 0.680942,-0.6813 0.680946,-0.6813 8.247274,-0.0772 c 5.903362,-0.0553 8.461953,0.0118 9.002648,0.2357 1.463453,0.60619 1.524177,1.01045 1.524177,10.14709 l -1.8e-5,8.34752 h 1.728096 c 1.1384,0 1.771407,-0.11286 1.855011,-0.33073 0.100408,-0.26165 5.031162,-0.3207 23.605762,-0.28271 20.238512,0.0414 23.489782,0.10081 23.558132,0.43054 0.0875,0.42235 1.383,0.70467 3.25398,0.70915 l 1.2166,0.003 -0.20119,-1.38906 c -0.11065,-0.76399 -0.39458,-2.75828 -0.63094,-4.43177 -0.57923,-4.10102 -1.43374,-9.92007 -1.88919,-12.86506 -0.20534,-1.32771 -0.37334,-2.84576 -0.37334,-3.37344 v -0.95941 H 61.11549 4.7592418 v -1.19063 -1.19062 h 3.5718749 3.5718753 v -2.91042 -2.91042 H 8.3311167 4.7592418 v -0.79375 -0.79375 l 3.505729,-0.0427 c 1.9281532,-0.0235 6.1251042,-0.0533 9.3265622,-0.0661 l 5.820833,-0.0234 0.132292,-16.13958 0.132292,-16.13958 0.595312,-0.0846 c 0.582309,-0.0827 0.595313,-0.15928 0.595313,-3.50573 v -3.42119 H 16.948836 9.0300929 l -0.3117356,1.50161 c -0.1714535,0.82589 -0.3400566,1.74863 -0.3746711,2.05052 -0.034607,0.3019 -0.2599655,1.47164 -0.5007751,2.59943 -0.5758463,2.69688 -1.0929761,5.3183 -1.6571772,8.40052 -0.253058,1.38245 -0.6689195,3.40651 -0.9241401,4.49792 l -0.4640368,1.98438 -0.017674,-2.64584 c -0.00974,-1.45521 0.093253,-3.06255 0.2288399,-3.57187 0.1355901,-0.50933 0.3148435,-1.40229 0.3983425,-1.98438 0.083502,-0.58208 0.3320591,-1.9513 0.5523477,-3.04271 0.2202921,-1.0914 0.5829512,-2.93687 0.8059138,-4.10104 0.9311922,-4.86207 1.271598,-6.36763 1.5105132,-6.68073 0.1847603,-0.24212 1.4793524,-0.33073 4.8323529,-0.33073 4.348417,0 4.588479,-0.0268 4.748022,-0.52944 0.308339,-0.97149 1.075059,-1.11658 5.72516,-1.08338 5.403384,0.0386 5.980169,-0.12864 6.933547,-2.01003 0.703845,-1.38897 1.93777,-2.19798 3.352429,-2.19798 0.598445,0 0.806238,0.13841 0.893731,0.59531 0.0627,0.32742 0.299572,1.54782 0.526383,2.71198 0.623634,3.20101 1.217235,6.95882 1.377082,8.71768 0.07867,0.86566 0.202004,1.66933 0.274066,1.78593 0.07207,0.11662 5.958068,0.21202 13.080002,0.21202 H 62.96758 v -3.80815 c 0,-4.19388 -0.02695,-4.12935 1.725817,-4.12935 0.488834,0 0.962371,0.11906 1.052308,0.26458 0.246465,0.39879 3.714866,0.33302 4.055064,-0.0769 0.155868,-0.18781 1.70264,-3.28799 3.437266,-6.88929 1.734626,-3.601297 3.462475,-6.894156 3.839665,-7.317486 0.39698,-0.445537 1.080159,-0.843664 1.622216,-0.945354 l 0.936414,-0.17567 v -1.558051 c 0,-1.208531 0.08903,-1.558041 0.396875,-1.558041 0.284815,0 0.396875,-0.290837 0.396875,-1.030024 0,-0.671494 0.138144,-1.083024 0.396875,-1.182313 0.322347,-0.123698 0.396875,-0.750073 0.396875,-3.335599 v -3.183304 h -0.79375 c -0.762173,0 -0.79375,-0.0465 -0.79375,-1.168985 0,-1.878087 0.118847,-2.006015 1.863629,-2.006015 h 1.542426 l 0.08291,-0.859896 c 0.07306,-0.757724 0.175937,-0.859895 0.865812,-0.859895 0.672676,0 0.816673,0.130383 1.022741,0.926041 0.131911,0.509323 0.296196,1.610653 0.365079,2.447396 l 0.125237,1.521354 h -0.817249 -0.817252 v 3.042708 c 0,2.689931 0.06135,3.10406 0.529167,3.571874 0.293984,0.29398 0.529166,0.881947 0.529166,1.322914 0,0.436557 0.119063,0.793744 0.264584,0.793744 0.149122,0 0.264583,0.746927 0.264583,1.711611 0,1.110444 0.233073,2.425598 0.663596,3.744459 0.364977,1.118074 0.718365,2.342138 0.785305,2.720135 0.115485,0.652117 0.516015,2.327857 1.334212,5.582077 0.201232,0.80037 0.568692,2.26145 0.816575,3.24685 l 0.450691,1.79165 10.740958,-0.11611 c 5.90752,-0.0639 11.33627,-0.15573 12.06387,-0.20415 l 1.32292,-0.088 0.0732,3.9026 0.0732,3.90261 h 3.79698 c 3.00849,0 3.86366,-0.0803 4.11803,-0.38683 0.2272,-0.27376 0.31291,-1.73975 0.29323,-5.0154 l -0.0278,-4.62857 1.39282,0.0545 1.3928,0.0545 0.0758,2.90984 c 0.0471,1.80828 -0.0378,3.12206 -0.22424,3.47041 -0.20343,0.38011 -0.22716,1.01909 -0.0737,1.98495 l 0.2263,1.42439 3.10679,0.0745 3.10679,0.0745 v 1.31452 1.31452 h -1.3261 -1.3261 l 0.0283,1.78594 c 0.0155,0.98227 0.25369,3.6314 0.52923,5.88698 0.27554,2.25557 0.50069,4.63682 0.50033,5.29166 -2.7e-4,0.65485 0.17341,2.79797 0.38618,4.7625 0.77596,7.16474 1.29377,12.58001 1.25233,13.09688 -0.0512,0.6382 0.4595,5.36696 0.65004,6.01927 0.10759,0.36832 0.43234,0.46302 1.58785,0.46302 h 1.45259 l -0.0814,1.12448 -0.0814,1.12448 -4.82865,0.0721 -4.82864,0.0721 -0.004,0.98622 c -0.002,0.54242 0.17181,2.11731 0.38696,3.49976 0.41884,2.69127 1.19619,7.92233 1.84794,12.43541 0.22066,1.52797 0.4722,3.46086 0.55899,4.29531 0.0868,0.83445 0.23875,1.56258 0.33771,1.61806 0.34718,0.19464 43.65769,-0.31204 51.64137,-0.60415 4.43839,-0.16239 10.33198,-0.47741 13.09688,-0.70003 2.7649,-0.22262 5.67378,-0.44694 6.4642,-0.49848 2.21399,-0.14438 9.39702,-1.19802 14.83476,-2.17602 1.23692,-0.22247 2.49063,-0.43188 2.786,-0.46535 0.29538,-0.0335 1.36694,-0.24827 2.38125,-0.47734 1.01431,-0.22906 2.85624,-0.61522 4.09316,-0.85814 1.23693,-0.24291 3.02287,-0.62132 3.96875,-0.84089 0.94589,-0.21957 2.10545,-0.44895 2.57681,-0.50972 0.47135,-0.0608 1.36432,-0.28236 1.98437,-0.49242 0.62005,-0.21006 1.54408,-0.42973 2.05341,-0.48814 1.14502,-0.13133 3.5721,-0.61909 5.73967,-1.15349 0.90124,-0.2222 1.97281,-0.435 2.38125,-0.4729 0.40844,-0.0379 1.57606,-0.27308 2.5947,-0.52265 1.01865,-0.24955 2.56646,-0.61992 3.43958,-0.82302 0.87313,-0.2031 2.42094,-0.56824 3.43959,-0.81143 1.01864,-0.24317 2.09021,-0.47564 2.38125,-0.51658 0.29104,-0.0409 1.5412,-0.32135 2.77812,-0.62313 2.69973,-0.65867 2.91042,-0.66911 2.91042,-0.1442 0,0.5933 -0.61855,1.70386 -8.54097,15.3345 -1.01496,1.74625 -2.11055,3.65125 -2.43465,4.23334 -0.89665,1.61041 -4.41267,7.67899 -5.79127,9.99564 -0.67363,1.13197 -1.22478,2.12383 -1.22478,2.20411 0,0.0803 -0.39931,0.76148 -0.88735,1.51374 -0.90925,1.4015 -4.05493,6.79694 -5.17919,8.88331 l -0.62807,1.16556 0.87817,-0.17564 c 2.74016,-0.54803 6.63141,-3.74609 8.02577,-6.59608 0.7474,-1.52762 0.78574,-1.65317 1.28993,-4.2245 0.26079,-1.32997 0.37564,-1.52135 0.91307,-1.52135 0.53614,0 0.61476,0.12942 0.61476,1.01199 0,1.40332 1.11478,4.54327 2.14421,6.0395 2.101,3.0537 5.3065,5.06907 9.03443,5.68016 1.90627,0.31247 2.05052,0.38159 2.05052,0.98241 0,0.63063 -0.0366,0.64199 -1.51123,0.46868 -3.57747,-0.42046 -6.44578,-1.71653 -8.75761,-3.95717 -1.50579,-1.45944 -3.05956,-3.78331 -3.37738,-5.05133 -0.19479,-0.7772 -0.19663,-0.77579 -0.84666,0.64844 -1.29809,2.84414 -3.99078,5.65953 -6.67378,6.97792 -1.53858,0.75603 -4.76352,1.48807 -6.46598,1.46774 -0.88209,-0.0105 -2.50499,-0.24091 -3.60643,-0.51193 z m 4.78075,-1.03568 c 0,-0.13412 0.75985,-1.5331 1.68857,-3.10886 7.05496,-11.97021 8.06944,-13.71156 10.68631,-18.34313 0.37,-0.65484 1.90302,-3.29547 3.40672,-5.86806 1.5037,-2.57258 3.01624,-5.19196 3.3612,-5.82083 0.34496,-0.62887 1.65583,-2.91955 2.91303,-5.09039 1.25721,-2.17085 2.28583,-4.03185 2.28583,-4.13556 0,-0.10371 -0.98226,0.0502 -2.18281,0.34201 -1.20055,0.29181 -2.68883,0.65024 -3.30729,0.7965 -0.61846,0.14627 -1.12448,0.41762 -1.12448,0.60301 0,0.33536 -1.15116,2.47022 -2.42054,4.48895 -0.36601,0.58208 -1.02306,1.71318 -1.46009,2.51354 -0.43704,0.80037 -1.72762,3.06255 -2.86795,5.02708 -4.0973,7.05869 -6.40923,11.07246 -6.57798,11.42013 -0.0945,0.19461 -0.39143,0.71102 -0.65993,1.14758 -0.26851,0.43656 -1.38096,2.34156 -2.47211,4.23334 -1.09116,1.89177 -3.00655,5.20218 -4.25644,7.35647 -1.40144,2.41549 -2.15173,3.95689 -1.95739,4.02125 1.68544,0.55815 4.94535,0.83301 4.94535,0.41697 z m -106.76555,-31.5723 c -0.11365,-0.76398 -0.2428,-1.86531 -0.287,-2.44739 -0.0442,-0.58209 -0.25447,-2.1299 -0.46728,-3.43959 -0.2128,-1.30968 -0.58344,-3.81 -0.82364,-5.55625 -0.24021,-1.74625 -0.66661,-4.5741 -0.94758,-6.28412 -0.28097,-1.71002 -0.48113,-3.25783 -0.4448,-3.43958 0.0473,-0.2368 -0.52514,-0.35255 -2.01989,-0.40837 l -2.08595,-0.0779 0.14589,0.73937 c 0.0802,0.40666 0.28259,1.7514 0.44968,2.98833 0.16709,1.23693 0.48144,3.31557 0.69855,4.6192 0.21711,1.30363 0.45028,2.9705 0.51816,3.70417 0.0679,0.73365 0.29071,2.34595 0.49517,3.58288 0.20446,1.23693 0.51371,3.32052 0.68723,4.63021 0.17351,1.30969 0.36757,2.47054 0.43124,2.57969 0.0637,0.10914 0.9575,0.19843 1.9863,0.19843 h 1.87056 z m -62.3032,-7.45528 v -8.31516 l -0.697139,-0.54838 c -0.668535,-0.52587 -1.009036,-0.54837 -8.298694,-0.54837 -7.289656,0 -7.630157,0.0225 -8.298692,0.54837 l -0.697142,0.54838 v 8.05058 c 0,4.42782 0.02978,8.07041 0.06615,8.09463 0.13177,0.0877 9.42926,0.38374 13.626042,0.43382 l 4.299479,0.0513 z m -11.400247,-0.49016 c -1.201455,-0.80966 -1.555789,-1.60557 -1.560435,-3.50506 -0.0045,-1.85133 0.342795,-2.482 1.912627,-3.47299 1.915411,-1.20915 4.612034,-0.45644 5.670822,1.58289 0.577003,1.11137 0.554478,2.86332 -0.05128,3.98815 -1.040518,1.93212 -4.116924,2.65696 -5.971731,1.40701 z m 3.750261,-1.32339 c 1.038966,-0.7977 1.350595,-2.5327 0.637709,-3.55049 -0.537693,-0.76766 -1.98108,-1.22589 -2.836739,-0.90057 -0.842729,0.32041 -1.792651,1.51451 -1.792651,2.25347 0,1.26241 1.320335,2.5199 2.645834,2.5199 0.509323,0 1.114954,-0.14504 1.345847,-0.32231 z M 13.490492,154.29698 c 0,-1.92986 -0.102966,-3.15938 -0.264584,-3.15938 -0.162341,0 -0.264583,1.28403 -0.264583,3.32291 0,2.1479 0.09356,3.26508 0.264583,3.15938 0.152488,-0.0942 0.264584,-1.50205 0.264584,-3.32291 z m 10.054166,0.54479 v -2.91042 h -4.497917 -4.497916 v 2.91042 2.91041 h 4.497916 4.497917 z m 2.645833,0.0156 c 0,-1.64446 -0.114279,-2.96543 -0.264583,-3.05832 -0.170558,-0.10541 -0.264583,0.92329 -0.264583,2.8948 0,1.8625 0.103455,3.05833 0.264583,3.05833 0.160267,0 0.264583,-1.14133 0.264583,-2.89481 z m 6.879167,-0.0156 v -2.91042 H 30.02695 26.984241 v 2.91042 2.91041 h 3.042709 3.042708 z m 1.587499,0 c 0,-1.76389 -0.104228,-2.91042 -0.264583,-2.91042 -0.160352,0 -0.264584,1.14653 -0.264584,2.91042 0,1.76389 0.104232,2.91041 0.264584,2.91041 0.160355,0 0.264583,-1.14652 0.264583,-2.91041 z m 12.245276,0.55242 c 0.245587,-3.79065 0.781537,-3.46284 -5.66155,-3.46284 H 35.71549 v 2.91042 2.91041 h 5.517088 5.517085 z m -9.00413,-0.98887 c -0.181899,-0.0753 -0.330729,-0.48408 -0.330729,-0.90852 v -0.7717 h 4.51468 4.514681 l -0.08291,0.8599 -0.08291,0.85989 -4.101041,0.0486 c -2.255573,0.0267 -4.249868,-0.0129 -4.431771,-0.0882 z m 10.517187,0.28854 c 0,-1.97151 -0.09402,-3.00021 -0.264583,-2.8948 -0.489656,0.30262 -0.322231,5.95312 0.176392,5.95312 0.0485,0 0.08819,-1.37624 0.08819,-3.05832 z m 11.1125,2.39687 c 0,-0.36381 -0.119063,-0.66146 -0.264583,-0.66146 -0.155639,0 -0.264584,-0.92604 -0.264584,-2.24896 v -2.24896 h -4.7625 -4.7625 v 2.91042 2.91041 h 5.027084 5.027083 z m 60.59574,-0.19844 c 0.004,-0.47295 -0.18053,-2.70537 -0.40871,-4.96094 -1.14871,-11.35523 -1.39903,-13.97625 -1.42767,-14.94896 -0.0171,-0.58208 -0.15141,-1.96354 -0.29838,-3.06991 -0.14697,-1.10638 -0.37409,-3.48763 -0.50473,-5.29167 -0.13063,-1.80405 -0.38105,-4.38141 -0.5565,-5.72748 l -0.31898,-2.44739 H 88.597541 60.586323 v 18.65312 18.65312 h 29.765624 29.765623 l 0.006,-0.85989 z M 66.936323,134.20826 v -7.67691 h 7.667879 7.667875 l 0.145517,0.59531 c 0.08004,0.32743 0.112071,3.75047 0.07119,7.60678 l -0.07433,7.01145 -7.739063,0.0701 -7.739062,0.0702 z m 12.904032,0.19445 0.07174,-5.22552 h -5.297258 -5.297262 v 5.11527 c 0,2.81341 0.08187,5.19715 0.181927,5.29721 0.100062,0.10006 2.451545,0.14967 5.225521,0.11024 l 5.043593,-0.0717 z m 13.554301,-0.19844 v -7.67292 h 7.672914 7.67292 v 7.67292 7.67292 h -7.67292 -7.672914 z m 12.904034,0.19844 0.0717,-5.22552 h -5.29726 -5.297264 v 5.11527 c 0,2.81341 0.08187,5.19715 0.181927,5.29721 0.100062,0.10006 2.451545,0.14967 5.225517,0.11024 l 5.0436,-0.0717 z m 23.94943,19.84375 c -0.19039,-1.92816 -0.59021,-5.77638 -0.8885,-8.55163 -0.2983,-2.77524 -0.52115,-5.15649 -0.49524,-5.29167 0.0259,-0.13517 0.033,-0.56528 0.0158,-0.9558 -0.0251,-0.56837 -0.17649,-0.72673 -0.75894,-0.79375 -0.67471,-0.0776 -0.73257,-0.17989 -0.79591,-1.40663 -0.0376,-0.72761 -0.25093,-2.87073 -0.47413,-4.7625 -0.2232,-1.89177 -0.47215,-4.71951 -0.55322,-6.28386 -0.14299,-2.75944 -0.13082,-2.84427 0.40799,-2.84427 0.4968,0 0.55538,-0.15349 0.55538,-1.45521 v -1.4552 h -4.7625 c -2.61937,0 -4.76196,0.0893 -4.7613,0.19843 7.1e-4,0.10914 0.22694,2.16297 0.50285,4.56407 0.27591,2.40109 0.50595,4.78234 0.5112,5.29166 0.005,0.50933 0.18763,2.59292 0.40529,4.63021 0.21766,2.03729 0.58725,5.84729 0.82131,8.46667 0.58761,6.57584 1.19507,12.5583 1.36344,13.4276 l 0.14093,0.7276 h 4.55586 4.55587 z m -8.78671,-17.44596 c -0.17442,-1.35517 -0.37314,-3.47597 -0.44159,-4.7129 -0.0684,-1.23692 -0.23993,-3.12078 -0.38106,-4.18633 -0.30671,-2.31564 -0.3312,-4.01169 -0.0582,-4.02655 0.10915,-0.006 1.22346,-0.0729 2.47627,-0.14869 l 2.27782,-0.13789 0.16666,1.00858 c 0.0917,0.55473 0.16491,1.48484 0.16277,2.06692 -0.002,0.58209 0.26378,3.46668 0.59093,6.41021 0.4218,3.79503 0.51263,5.43407 0.31226,5.63444 -0.15541,0.15541 -1.29646,0.34413 -2.53566,0.41936 l -2.2531,0.13678 z m 2.58371,0.96193 c 0.0501,-0.0442 -0.029,-1.13069 -0.17588,-2.41453 -0.14683,-1.28384 -0.27921,-2.81051 -0.29417,-3.39259 -0.0265,-1.03194 -0.40953,-4.4276 -0.69383,-6.15156 -0.11513,-0.69809 -0.26402,-0.8599 -0.79128,-0.8599 -0.75383,0 -0.81102,0.44993 -0.38662,3.04169 0.14287,0.87256 0.38381,3.34249 0.5354,5.48873 0.32111,4.54605 0.37995,4.77815 1.15131,4.54147 0.31019,-0.0952 0.60497,-0.20917 0.65507,-0.25331 z m -65.046297,5.70485 c 0,-4.28162 -0.09922,-6.91185 -0.264583,-7.01405 -0.152368,-0.0942 -0.264583,-1.49685 -0.264583,-3.30729 0,-1.81045 0.112215,-3.21313 0.264583,-3.3073 0.145521,-0.0899 0.264583,-0.87087 0.264583,-1.73541 0,-0.87153 0.117888,-1.57188 0.264584,-1.57188 0.161053,0 0.264583,-1.19062 0.264583,-3.04271 v -3.0427 H 42.06549 24.602991 v 14.80283 14.80284 l 1.389063,0.0815 c 0.763986,0.0448 8.503048,0.10473 17.197915,0.1331 l 15.808854,0.0516 z m -20.857125,6.11621 c -0.19988,-0.12672 -0.314184,-0.55361 -0.264583,-0.98814 l 0.08733,-0.76504 3.704166,-0.0761 c 4.37854,-0.0899 4.894792,-0.003 4.894792,0.82194 0,1.12069 -0.416204,1.23874 -4.352396,1.23446 -2.044566,-0.002 -3.875754,-0.10445 -4.069313,-0.22715 z m -0.309541,-5.58308 v -0.80031 h 4.3832 4.383197 l -0.08372,0.72761 -0.08372,0.7276 -4.299479,0.0727 -4.299479,0.0727 z m 0.104203,-4.34998 c -0.08192,-0.21349 -0.107491,-0.60348 -0.05681,-0.86664 0.08431,-0.43779 0.451873,-0.47848 4.321859,-0.47848 h 4.229707 v 0.79375 0.79375 l -4.172902,0.0729 c -3.47072,0.0606 -4.197964,0.008 -4.321853,-0.31527 z m -8.482851,-3.77794 c -2.388457,-0.46564 -3.108903,-4.34186 -1.118309,-6.01684 1.08029,-0.909 3.245087,-0.96139 4.333963,-0.10488 2.13088,1.67616 1.603121,5.34402 -0.867678,6.03024 -0.997945,0.27716 -1.329351,0.29007 -2.347976,0.0915 z m 1.988778,-1.82882 c 1.871994,-1.3112 0.369207,-3.99619 -1.707162,-3.05013 -1.286588,0.58621 -1.21986,2.08473 0.139654,3.13617 0.559661,0.43283 0.849411,0.41693 1.567508,-0.086 z m 19.938738,1.82451 c -0.333485,-0.0639 -1.018096,-0.52786 -1.521354,-1.03112 -0.785453,-0.78545 -0.914873,-1.09172 -0.914023,-2.16296 0.0011,-1.39074 0.676526,-2.74532 1.620873,-3.25072 0.860478,-0.46051 3.009455,-0.39301 3.791013,0.11909 2.425615,1.58932 1.893824,5.47369 -0.853853,6.23678 -1.016165,0.28221 -1.095872,0.28555 -2.122656,0.0889 z m 1.879564,-1.64502 c 1.303236,-0.49549 1.421578,-2.44979 0.204915,-3.38391 -1.126353,-0.86479 -2.933347,0.16053 -2.933347,1.66443 0,1.56666 1.177907,2.30899 2.728432,1.71948 z m -15.324229,0.66477 c -0.08192,-0.21349 -0.107491,-0.60348 -0.05681,-0.86664 0.08431,-0.43779 0.451873,-0.47848 4.321859,-0.47848 h 4.229707 v 0.79375 0.79375 l -4.172902,0.0729 c -3.47072,0.0606 -4.197964,0.008 -4.321853,-0.31527 z m -0.104203,-5.45272 v -0.8003 l 4.299479,0.0727 4.299479,0.0727 0.08372,0.7276 0.08372,0.72761 h -4.383197 -4.3832 z m 0.176392,-3.874 c -0.09702,-0.097 -0.176392,-0.51668 -0.176392,-0.93259 v -0.75621 l 4.299479,0.0727 4.299479,0.0727 0.08929,0.63154 c 0.04911,0.34734 -0.06995,0.73247 -0.264583,0.85584 -0.415706,0.2635 -7.988367,0.31494 -8.247278,0.056 z m 21.519441,-6.43819 c 0,-0.17372 -5.997222,-0.26458 -17.4625,-0.26458 -11.465277,0 -17.462499,0.0909 -17.462499,0.26458 0,0.17372 5.997222,0.26458 17.462499,0.26458 11.465278,0 17.4625,-0.0909 17.4625,-0.26458 z m 59.39896,0 c 0.10863,-0.17578 -9.61045,-0.26458 -28.95626,-0.26458 -19.236799,0 -29.119784,0.0898 -29.119784,0.26458 0,0.17478 9.828477,0.26458 28.956261,0.26458 19.018773,0 29.012383,-0.0908 29.119783,-0.26458 z m 10.9802,0 c 0,-0.1657 -1.63159,-0.26458 -4.36562,-0.26458 -2.73402,0 -4.36562,0.0989 -4.36562,0.26458 0,0.1657 1.6316,0.26458 4.36562,0.26458 2.73403,0 4.36562,-0.0989 4.36562,-0.26458 z m -94.308595,-2.97656 c -0.09289,-0.90951 -0.293934,-2.45732 -0.446758,-3.43959 l -0.277865,-1.78593 H 30.39992 25.925908 v 3.43958 3.43958 h 4.92077 4.920769 z m 28.956518,-1.80156 c 0,-2.23609 -0.09335,-3.3975 -0.264583,-3.29167 -0.153448,0.0948 -0.264584,1.54615 -0.264584,3.45519 0,2.01807 0.102373,3.29168 0.264584,3.29168 0.162884,0 0.264583,-1.32812 0.264583,-3.4552 z m 2.835723,0.87552 c 0.695925,-1.41883 1.307109,-2.67529 1.35818,-2.79213 0.05108,-0.11684 -0.603768,-0.17637 -1.455208,-0.13229 l -1.54807,0.0801 -0.0754,2.71198 c -0.04689,1.68655 0.02491,2.71198 0.189886,2.71198 0.145909,0 0.834683,-1.16086 1.530611,-2.57968 z m 12.245527,-0.19844 v -2.77813 h -4.452282 -4.452288 l -1.236253,2.63148 c -0.679944,1.44731 -1.23626,2.69747 -1.23626,2.77813 0,0.0806 2.559843,0.14664 5.688541,0.14664 h 5.688542 z m 4.7625,0 v -2.77813 h -1.852084 -1.852083 v 2.77813 2.77812 h 1.852083 1.852084 z m 4.890226,1.91823 c -0.07942,-0.47294 -0.312734,-1.39568 -0.518474,-2.05052 -0.20574,-0.65485 -0.410347,-1.48829 -0.454681,-1.85209 -0.07303,-0.59918 -0.211384,-0.66899 -1.469676,-0.74143 l -1.389062,-0.08 v 2.79195 2.79195 h 1.98815 1.988146 z m 21.832691,-1.91823 v -2.77813 h -10.58333 c -5.820838,0 -10.583337,0.0755 -10.583337,0.16774 0,0.18334 0.337827,1.50578 0.987887,3.86716 l 0.41881,1.52135 h 9.87999 9.87998 z m 1.58345,-0.72761 c -0.003,-2.36122 -0.0878,-3.37616 -0.26053,-3.10885 -0.34552,0.53465 -0.34552,6.61458 0,6.61458 0.16328,0 0.26303,-1.34226 0.26053,-3.50573 z m 10.85197,2.18282 c 0,-0.29105 -0.11907,-0.52917 -0.26459,-0.52917 -0.14552,0 -0.26458,0.23812 -0.26458,0.52917 0,0.29104 0.11906,0.52916 0.26458,0.52916 0.14552,0 0.26459,-0.23812 0.26459,-0.52916 z m 0,-5.42396 c 0,-1.14653 -0.11172,-1.98438 -0.26459,-1.98438 -0.15287,0 -0.26458,0.83785 -0.26458,1.98438 0,1.14653 0.11171,1.98437 0.26458,1.98437 0.15287,0 0.26459,-0.83784 0.26459,-1.98437 z M 79.636323,103.5126 v -6.879139 h -0.79375 c -0.436563,0 -0.79375,0.11401 -0.79375,0.253357 0,0.13936 -1.369219,3.110745 -3.042708,6.603102 -1.67349,3.49235 -3.042709,6.47396 -3.042709,6.62579 0,0.179 1.34892,0.27606 3.836458,0.27606 h 3.836459 z m 4.7625,0.0184 v -6.860749 l -0.595313,-0.0845 c -0.424035,-0.0602 -0.619142,-0.291227 -0.678141,-0.802927 -0.06719,-0.582714 0.04523,-0.750504 0.595312,-0.888574 0.600344,-0.15069 0.678142,-0.304897 0.678142,-1.344231 v -1.174034 l -1.785938,0.0782 -1.785937,0.0782 -0.06989,8.596765 c -0.03844,4.72825 -0.01242,8.74661 0.05784,8.92969 0.08459,0.22043 0.711486,0.33288 1.855837,0.33288 h 1.728093 v -6.86077 z m 3.175,6.36486 c 0,-0.27274 -0.169556,-0.97648 -0.376799,-1.56386 -0.207236,-0.58738 -0.444045,-1.46555 -0.526242,-1.95149 -0.0822,-0.48595 -0.316689,-1.50144 -0.521092,-2.25666 -0.204403,-0.75521 -0.316857,-1.4279 -0.2499,-1.49486 0.06696,-0.067 -0.0052,-0.20022 -0.160447,-0.29614 -0.195241,-0.12068 -0.282187,1.09398 -0.282187,3.94224 v 4.11666 h 1.058333 c 0.85828,0 1.058334,-0.0937 1.058334,-0.4959 z m -52.916666,-0.42142 c 0,-0.16029 -0.796297,-3.63851 -0.955548,-4.17382 -0.235532,-0.79174 -1.585097,0.13866 -2.328181,1.60506 -0.945666,1.86619 -1.354599,1.98943 -7.145884,2.15358 -2.972844,0.0843 -5.04129,0.24932 -5.093398,0.40646 -0.05754,0.1735 2.599309,0.23916 7.717634,0.19073 4.29296,-0.0406 7.805377,-0.12253 7.805377,-0.18203 z M 83.410276,91.420151 c -0.325424,-0.0628 -0.920736,-0.0644 -1.322917,-0.004 -0.402184,0.0608 -0.135932,0.1122 0.591672,0.11418 0.727604,0.002 1.056665,-0.0478 0.731245,-0.11057 z m -0.598953,-5.385602 c 0,-2.059703 -0.09378,-3.132656 -0.264584,-3.027094 -0.490946,0.303421 -0.323162,6.217708 0.176393,6.217708 0.0485,0 0.08819,-1.435777 0.08819,-3.190614 z m 1.5875,-4.879177 c 0,-0.64256 -0.05292,-0.661459 -1.852084,-0.661459 -1.799166,0 -1.852083,0.01891 -1.852083,0.661459 0,0.64256 0.05292,0.661458 1.852083,0.661458 1.799167,0 1.852084,-0.01891 1.852084,-0.661458 z M 17.856116,175.77256 c -2.338708,-0.59342 -3.481235,-1.84701 -4.117234,-4.51746 -0.52682,-2.21203 0.856217,-4.8661 3.056633,-5.86572 2.610185,-1.18578 6.055977,-0.12375 7.250779,2.23477 1.094295,2.16013 0.792829,4.88927 -0.731979,6.6265 -1.042246,1.18745 -3.77421,1.9492 -5.458199,1.52191 z m 2.656502,-2.56505 c 3.048726,-1.44671 2.028846,-5.93033 -1.348966,-5.93033 -2.16366,0 -3.869499,2.4016 -2.92941,4.12423 1.179096,2.16059 2.423932,2.6861 4.278376,1.8061 z m -5.434626,-2.75533 c 0,-0.14552 -0.119063,-0.26458 -0.264584,-0.26458 -0.145521,0 -0.264583,0.11906 -0.264583,0.26458 0,0.14553 0.119062,0.26459 0.264583,0.26459 0.145521,0 0.264584,-0.11906 0.264584,-0.26459 z m 16.965823,5.30446 c -1.20343,-0.30209 -2.128107,-1.02522 -3.047477,-2.38322 -0.65042,-0.96074 -0.76743,-1.39634 -0.775297,-2.88627 -0.01714,-3.24684 1.732316,-5.23818 4.850314,-5.52091 2.641348,-0.23952 4.312086,0.64928 5.453079,2.90093 1.428235,2.81848 0.431539,5.95435 -2.345076,7.37821 -1.183989,0.60715 -2.905664,0.82 -4.135543,0.51126 z m 3.481359,-2.82451 c 1.591289,-1.20031 1.731063,-3.30281 0.313792,-4.72009 -0.818324,-0.81832 -1.098155,-0.93486 -2.244788,-0.93486 -1.812311,0 -2.899219,0.95271 -3.0979,2.71538 -0.163026,1.44636 0.273029,2.3023 1.595568,3.13198 1.002072,0.62865 2.452602,0.54736 3.433328,-0.19241 z m 39.549489,2.71296 c -1.661054,-0.61489 -2.332839,-1.205 -2.997916,-2.63343 -1.553729,-3.33705 -0.09316,-6.9995 3.139838,-7.87331 1.446456,-0.39096 3.810508,-0.13986 4.668757,0.49587 2.039189,1.51051 2.992074,3.93026 2.405524,6.10854 -0.326873,1.21391 -1.792316,3.02152 -2.924013,3.60674 -1.102543,0.57015 -3.16654,0.71229 -4.29219,0.29559 z m 3.109157,-2.39886 c 1.711801,-0.71524 2.464192,-2.85769 1.518758,-4.32471 -0.779036,-1.20882 -1.451042,-1.62617 -2.633493,-1.63553 -1.538386,-0.0122 -2.294276,0.39914 -2.981918,1.62264 -0.940343,1.67311 -0.329706,3.54897 1.402232,4.3076 1.103072,0.48318 1.596654,0.48868 2.694421,0.03 z m 11.769542,2.52777 c -2.761206,-0.89312 -4.237168,-2.84499 -4.224334,-5.5864 0.01062,-2.26848 2.172705,-4.84545 4.337734,-5.17011 2.65056,-0.39748 4.656963,0.3922 5.885141,2.31625 0.612704,0.95986 0.723579,1.41857 0.721776,2.98615 -0.0014,1.18925 -0.153945,2.13616 -0.426328,2.64584 -0.468817,0.87722 -1.627054,2.03071 -2.4762,2.46603 -0.772333,0.39593 -3.026925,0.59805 -3.817789,0.34224 z m 3.286851,-2.81809 c 0.785841,-0.5149 1.212776,-1.48719 1.212776,-2.76192 0,-0.80269 -0.194666,-1.23345 -0.891138,-1.97193 -0.776086,-0.82289 -1.051599,-0.94488 -2.134058,-0.94488 -1.533028,0 -2.064015,0.27142 -2.771987,1.41695 -0.976214,1.57955 -0.516198,3.40854 1.113677,4.42787 0.949558,0.59387 2.418151,0.52359 3.47073,-0.16609 z m 10.538727,2.56556 c -1.73335,-0.61177 -2.38156,-1.17979 -3.04872,-2.67157 -1.036241,-2.31706 -0.45054,-5.16924 1.37737,-6.70732 1.13996,-0.95922 2.49826,-1.33518 4.24996,-1.17635 2.67185,0.24228 4.38919,1.8302 4.87536,4.50795 0.2357,1.29823 -0.41705,3.58245 -1.33574,4.67425 -1.33399,1.58537 -3.89085,2.15917 -6.11823,1.37304 z m 3.36482,-2.38155 c 2.0299,-1.08865 2.33938,-3.56837 0.63239,-5.06712 -1.76255,-1.54754 -4.3795,-0.79366 -5.12907,1.47756 -0.39178,1.1871 -0.0165,2.18067 1.24043,3.28429 1.04717,0.91943 1.95278,1.00433 3.25625,0.30527 z"
       id="path3733"
       inkscape:connector-curvature="0"
       sodipodi:nodetypes="csscsssscscccscccscsscscccccssscccsscsscsssccsscccscscccsssssccscssscscscsscsscscscscccscssscsscscccsscscccssssccscssccccsscccccsscccccscccscsccccssscccccccccccccscccccscccccssscccccscsccssccccscssscscccssssscsssccscccccscssscccccsccccscccccccsccccccccccsccsccccccssccsccscssccccsscccscssccsccccscsscsssccsscccssssccsccsscscscscsccccsccccssssccscccccsccsccccscsccscscsscssscscccccccccscsssscccccccccssssscscccccccscccccscscssssscccccccsccccsccccccccccccccssccccccccssscccccccccccccccsssccssccccscsscscccssccccsssccscccccccsscccscscsscscsssccccccscsccccscccccccccccccsccccccsccccccccscccccccscccscccccccccccccccsccccscssssscssscsssssccccccccccscsssccccssccccccsscccccccccccsscscccccsccsssccccccscssssssssssccssssscccccccscccccscccccssccscscccssscccccccccscssssssscsccsccsscssssscssssccscsccscccccccccccccccscccccccscsscccsscssccccsc" />
    <path
       style="fill:#4d4d4d;stroke-width:0.32704863"
       d="M 168.06107,179.23564 V 174.677 l -1.55348,-0.2097 c -2.39067,-0.3227 -4.7048,-1.1532 -5.53968,-1.98808 l -0.75601,-0.75601 v -12.23459 -12.23459 l 0.86304,-0.86304 c 0.87817,-0.87817 3.47974,-1.83892 5.00143,-1.84701 0.46202,-0.002 1.17117,-0.0932 1.57589,-0.20167 l 0.73586,-0.1972 V 133.0636 c 0,-8.39135 -0.0951,-11.08151 -0.39185,-11.08151 -0.21552,0 -1.68608,0.73586 -3.26791,1.63524 -3.13192,1.78072 -3.4587,1.86079 -4.78828,1.17323 -4.29666,-2.22189 -8.44866,-11.9345 -5.99148,-14.01563 0.99599,-0.84356 20.89639,-11.686234 21.44865,-11.686234 2.58584,0 7.49433,6.548284 7.95197,10.608544 l 0.16922,1.50132 10.33948,-0.0863 10.33946,-0.0863 0.23315,-1.86725 c 0.12823,-1.02699 0.53156,-2.45219 0.89629,-3.16711 1.22557,-2.40232 0.76151,-2.32423 13.81121,-2.32423 8.05301,0 11.94006,0.11594 12.50418,0.37297 0.92105,0.41966 1.99798,2.46269 2.31542,4.3926 0.11624,0.70666 0.28671,1.68955 0.37882,2.18421 l 0.16746,0.89938 h 5.68593 5.68592 l 0.0932,-3.35224 0.0932,-3.35225 h 7.03153 7.03156 l 0.16351,3.03429 0.16355,3.03429 2.9366,-2.95253 c 1.61515,-1.62389 3.05008,-2.95253 3.18872,-2.95253 0.13867,0 0.25213,3.09061 0.25213,6.86802 0,3.77741 -0.11346,6.86803 -0.25213,6.86803 -0.13864,0 -1.57357,-1.32864 -3.18872,-2.95254 l -2.9366,-2.95252 -0.16355,3.03429 -0.16351,3.03429 h -7.03156 -7.03153 l -0.0932,-3.35225 -0.0932,-3.35225 h -5.67477 -5.67478 l -0.21756,1.55348 c -0.37162,2.6536 -1.11701,4.84031 -1.95999,5.74989 l -0.80892,0.87285 h -12.29556 -12.29556 l -0.80423,-0.86778 c -0.80766,-0.87149 -1.78092,-3.53511 -1.78092,-4.87405 0,-0.39456 -0.092,-1.17729 -0.20441,-1.73941 l -0.2044,-1.02203 h -10.2257 -10.2257 l -0.19943,0.79461 c -0.15836,0.63095 -1.68119,1.61545 -7.39405,4.7802 l -7.19461,3.9856 v 11.37371 c 0,12.45361 -0.11195,11.77075 1.92968,11.77075 1.61333,0 4.37345,1.02004 5.31919,1.96578 l 0.92734,0.92734 v 11.78352 c 0,8.20622 -0.11455,12.03494 -0.37734,12.6117 -0.50023,1.09787 -2.51869,2.03025 -5.42777,2.50722 l -2.3711,0.38877 v 4.53075 c 0,2.80247 -0.12476,4.53075 -0.32705,4.53075 -0.20239,0 -0.32705,-1.73758 -0.32705,-4.55864 z m 5.88688,-6.12617 c 0.80944,-0.36058 1.66784,-0.89321 1.90754,-1.18362 1.74969,-2.11982 -4.18442,-4.27584 -9.66898,-3.51301 -2.29662,0.31943 -4.70859,1.24692 -5.16559,1.98636 -0.73078,1.18243 0.77614,2.52059 3.64954,3.24084 2.13353,0.53479 7.58586,0.22298 9.27749,-0.53057 z m -6.40946,-5.27216 c 3.45291,-0.15357 6.28138,0.35666 7.96293,1.43644 l 0.73586,0.47252 v -10.25956 -10.25957 l -1.71623,0.84938 c -1.46718,0.72611 -2.23842,0.8659 -5.31454,0.96328 -3.521,0.11146 -4.8114,-0.12225 -7.76818,-1.40693 -0.53811,-0.23381 -0.57233,0.35669 -0.57233,9.87481 v 10.12349 l 1.6619,-0.82246 c 1.35115,-0.66868 2.28806,-0.85032 5.01059,-0.9714 z m 4.09962,-17.3981 c 4.998,-0.94785 6.03586,-3.36756 2.03149,-4.73624 -4.67537,-1.59803 -12.29271,-0.45885 -12.74824,1.90651 -0.4134,2.14662 5.74473,3.77265 10.71675,2.82973 z m -9.24543,-26.82188 c 1.19053,-2.5163 -2.85048,-10.58116 -6.15916,-12.29214 -4.32352,-2.23578 -2.73016,6.47578 2.08617,11.40596 1.5255,1.56155 2.0358,1.89381 2.7775,1.80842 0.58607,-0.0675 1.04598,-0.39488 1.29549,-0.92224 z m 20.31239,-11.0508 0.48002,-0.72295 h -6.10959 c -3.98978,0 -6.03947,-0.11347 -5.90747,-0.32705 0.1226,-0.19836 2.51077,-0.32705 6.0697,-0.32705 5.0513,0 5.86758,-0.0697 5.86758,-0.50088 0,-0.86287 -1.22163,-4.16991 -2.17081,-5.87656 -1.32047,-2.37423 -4.10106,-5.069257 -5.2302,-5.069257 -0.55425,0 -4.60242,2.046377 -10.48723,5.301347 -7.62114,4.21537 -9.46721,5.36301 -9.01185,5.60232 3.1928,1.67799 6.95012,8.1649 6.95012,11.9992 v 1.24875 l 9.53485,-5.30246 c 5.24417,-2.91635 9.75086,-5.62778 10.01488,-6.02541 z m 45.89175,5.40995 c -0.78294,-1.58204 -0.84937,-2.04894 -0.84937,-5.96937 0,-3.92044 0.0664,-4.38733 0.84937,-5.96937 l 0.84937,-1.71627 h -11.18248 c -12.60158,0 -11.72898,-0.17941 -12.80441,2.63262 -0.39459,1.03176 -0.56372,2.50281 -0.58095,5.05302 -0.0255,3.76958 0.32089,5.36159 1.48976,6.84758 l 0.65922,0.83806 h 11.20943 11.20943 z m 3.78083,0.46967 c 2.11812,-3.15081 1.71738,-11.7998 -0.63678,-13.74289 -1.93417,-1.59645 -4.19277,3.69946 -3.69368,8.66088 0.55761,5.54334 2.49326,7.81492 4.33046,5.08201 z m 27.25704,-6.60257 v -6.54097 h -6.54099 -6.54096 v 6.54097 6.54098 h 6.54096 6.54099 z m 6.54096,-0.0794 v -5.63926 l -2.85687,2.85689 -2.8569,2.8569 2.7679,2.78236 c 1.52234,1.5303 2.80797,2.78236 2.8569,2.78236 0.0489,0 0.089,-2.53766 0.089,-5.63925 z"
       id="path4012"
       inkscape:connector-curvature="0" />
    <path
       id="path4158"
       d="m 193.3835,111.02596 h 10.81389"
       style="fill:none;stroke:#ff0000;stroke-width:1.54483962px;stroke-linecap:round;stroke-linejoin:round;stroke-miterlimit:4;stroke-dasharray:none;stroke-opacity:1"
       inkscape:connector-curvature="0" />
    <path
       id="path4160"
       d="m 203.49737,108.17767 5.67247,2.84829 -5.67247,2.84831 z"
       style="fill:#ff0000;fill-opacity:1;fill-rule:evenodd;stroke:none;stroke-width:0.66787392"
       inkscape:connector-curvature="0" />
    <path
       id="path4198"
       d="M 193.3835,111.02596 V 100.50175"
       style="fill:none;stroke:#000080;stroke-width:1.54483962px;stroke-linecap:round;stroke-linejoin:round;stroke-miterlimit:4;stroke-dasharray:none;stroke-opacity:1"
       inkscape:connector-curvature="0" />
    <path
       id="path4200"
       d="m 190.53521,101.22588 2.84829,-5.696553 2.8483,5.696553 z"
       style="fill:#000080;fill-opacity:1;fill-rule:evenodd;stroke:none;stroke-width:0.66787392"
       inkscape:connector-curvature="0" />
    <path
       id="path4210"
       d="m 193.19039,110.857 h 3.669 c 0,-2.00346 -1.64139,-3.64485 -3.669,-3.64485 z"
       style="fill:#ffffff;fill-opacity:1;fill-rule:evenodd;stroke:none;stroke-width:0.66787392"
       inkscape:connector-curvature="0" />
    <path
       id="path4212"
       d="m 193.19039,110.857 h 3.669 c 0,-2.00346 -1.64139,-3.64485 -3.669,-3.64485 z"
       style="fill:none;stroke:#000000;stroke-width:0.38620991px;stroke-linecap:round;stroke-linejoin:round;stroke-miterlimit:4;stroke-dasharray:none;stroke-opacity:1"
       inkscape:connector-curvature="0" />
    <path
       id="path4214"
       d="m 193.19039,110.857 v -3.64485 c -2.00346,0 -3.64485,1.64139 -3.64485,3.64485 z"
       style="fill:#000000;fill-opacity:1;fill-rule:evenodd;stroke:none;stroke-width:0.66787392"
       inkscape:connector-curvature="0" />
    <path
       id="path4216"
       d="m 193.19039,110.857 v -3.64485 c -2.00346,0 -3.64485,1.64139 -3.64485,3.64485 z"
       style="fill:none;stroke:#000000;stroke-width:0.38620991px;stroke-linecap:round;stroke-linejoin:round;stroke-miterlimit:4;stroke-dasharray:none;stroke-opacity:1"
       inkscape:connector-curvature="0" />
    <path
       id="path4218"
       d="m 193.19039,110.857 h -3.64485 c 0,2.0276 1.64139,3.64486 3.64485,3.64486 z"
       style="fill:#ffffff;fill-opacity:1;fill-rule:evenodd;stroke:none;stroke-width:0.66787392"
       inkscape:connector-curvature="0" />
    <path
       id="path4220"
       d="m 193.19039,110.857 h -3.64485 c 0,2.0276 1.64139,3.64486 3.64485,3.64486 z"
       style="fill:none;stroke:#000000;stroke-width:0.38620991px;stroke-linecap:round;stroke-linejoin:round;stroke-miterlimit:4;stroke-dasharray:none;stroke-opacity:1"
       inkscape:connector-curvature="0" />
    <path
       id="path4222"
       d="m 193.19039,110.857 v 3.64486 c 2.02761,0 3.669,-1.61726 3.669,-3.64486 z"
       style="fill:#000000;fill-opacity:1;fill-rule:evenodd;stroke:none;stroke-width:0.66787392"
       inkscape:connector-curvature="0" />
    <path
       id="path4224"
       d="m 193.19039,110.857 v 3.64486 c 2.02761,0 3.669,-1.61726 3.669,-3.64486 z"
       style="fill:none;stroke:#000000;stroke-width:0.38620991px;stroke-linecap:round;stroke-linejoin:round;stroke-miterlimit:4;stroke-dasharray:none;stroke-opacity:1"
       inkscape:connector-curvature="0" />
    <path
       id="path4226"
       d="m 169.30443,111.31442 h 10.81388"
       style="fill:none;stroke:#ff0000;stroke-width:1.54483962px;stroke-linecap:round;stroke-linejoin:round;stroke-miterlimit:4;stroke-dasharray:none;stroke-opacity:1"
       inkscape:connector-curvature="0" />
    <path
       id="path4228"
       d="m 179.4183,108.46613 5.67246,2.84829 -5.67246,2.84831 z"
       style="fill:#ff0000;fill-opacity:1;fill-rule:evenodd;stroke:none;stroke-width:0.66787392"
       inkscape:connector-curvature="0" />
    <path
       id="path4266"
       d="M 169.30443,111.31442 V 100.79021"
       style="fill:none;stroke:#000080;stroke-width:1.54483962px;stroke-linecap:round;stroke-linejoin:round;stroke-miterlimit:4;stroke-dasharray:none;stroke-opacity:1"
       inkscape:connector-curvature="0" />
    <path
       id="path4268"
       d="m 166.45613,101.51434 2.8483,-5.696556 2.8483,5.696556 z"
       style="fill:#000080;fill-opacity:1;fill-rule:evenodd;stroke:none;stroke-width:0.66787392"
       inkscape:connector-curvature="0" />
    <path
       id="path4226-3"
       d="m 214.75718,111.34868 h 10.81388"
       style="fill:none;stroke:#ff0000;stroke-width:1.54483962px;stroke-linecap:round;stroke-linejoin:round;stroke-miterlimit:4;stroke-dasharray:none;stroke-opacity:1"
       inkscape:connector-curvature="0" />
    <path
       id="path4228-4"
       d="m 224.87105,108.50039 5.67246,2.84829 -5.67246,2.84831 z"
       style="fill:#ff0000;fill-opacity:1;fill-rule:evenodd;stroke:none;stroke-width:0.66787392"
       inkscape:connector-curvature="0" />
    <path
       id="path4266-5"
       d="M 214.75718,111.34868 V 100.82447"
       style="fill:none;stroke:#000080;stroke-width:1.54483962px;stroke-linecap:round;stroke-linejoin:round;stroke-miterlimit:4;stroke-dasharray:none;stroke-opacity:1"
       inkscape:connector-curvature="0" />
    <path
       id="path4268-0"
       d="m 211.90888,101.5486 2.8483,-5.696556 2.8483,5.696556 z"
       style="fill:#000080;fill-opacity:1;fill-rule:evenodd;stroke:none;stroke-width:0.66787392"
       inkscape:connector-curvature="0" />
    <path
       id="path4226-0"
       d="M 168.38812,163.34594 H 179.202"
       style="fill:#ff0000;stroke:#ff0000;stroke-width:1.54483962px;stroke-linecap:round;stroke-linejoin:round;stroke-miterlimit:4;stroke-dasharray:none;stroke-opacity:1"
       inkscape:connector-curvature="0" />
    <path
       id="path4228-8"
       d="m 178.50199,160.49765 5.67246,2.84829 -5.67246,2.84831 z"
       style="fill:#ff0000;fill-opacity:1;fill-rule:evenodd;stroke:none;stroke-width:0.66787392"
       inkscape:connector-curvature="0" />
    <path
       id="path4266-8"
       d="M 168.38812,163.34594 V 152.82173"
       style="fill:none;stroke:#000080;stroke-width:1.54483962px;stroke-linecap:round;stroke-linejoin:round;stroke-miterlimit:4;stroke-dasharray:none;stroke-opacity:1"
       inkscape:connector-curvature="0" />
    <path
       id="path4268-6"
       d="m 165.53982,153.54586 2.8483,-5.69658 2.8483,5.69658 z"
       style="fill:#000080;fill-opacity:1;fill-rule:evenodd;stroke:none;stroke-width:0.66787392"
       inkscape:connector-curvature="0" />
    <path
       id="path4158-6"
       d="m 168.58122,132.73171 h 10.81389"
       style="fill:none;stroke:#ff0000;stroke-width:1.54483962px;stroke-linecap:round;stroke-linejoin:round;stroke-miterlimit:4;stroke-dasharray:none;stroke-opacity:1"
       inkscape:connector-curvature="0" />
    <path
       id="path4160-8"
       d="m 178.69509,129.88342 5.67247,2.84829 -5.67247,2.84831 z"
       style="fill:#ff0000;fill-opacity:1;fill-rule:evenodd;stroke:none;stroke-width:0.66787392"
       inkscape:connector-curvature="0" />
    <path
       id="path4198-4"
       d="M 168.58122,132.73171 V 122.2075"
       style="fill:none;stroke:#000080;stroke-width:1.54483962px;stroke-linecap:round;stroke-linejoin:round;stroke-miterlimit:4;stroke-dasharray:none;stroke-opacity:1"
       inkscape:connector-curvature="0" />
    <path
       id="path4200-9"
       d="m 165.73293,122.93163 2.84829,-5.69658 2.8483,5.69658 z"
       style="fill:#000080;fill-opacity:1;fill-rule:evenodd;stroke:none;stroke-width:0.66787392"
       inkscape:connector-curvature="0" />
    <path
       id="path4210-4"
       d="m 168.38811,132.56275 h 3.669 c 0,-2.00346 -1.64139,-3.64485 -3.669,-3.64485 z"
       style="fill:#ffffff;fill-opacity:1;fill-rule:evenodd;stroke:none;stroke-width:0.66787392"
       inkscape:connector-curvature="0" />
    <path
       id="path4212-1"
       d="m 168.38811,132.56275 h 3.669 c 0,-2.00346 -1.64139,-3.64485 -3.669,-3.64485 z"
       style="fill:none;stroke:#000000;stroke-width:0.38620991px;stroke-linecap:round;stroke-linejoin:round;stroke-miterlimit:4;stroke-dasharray:none;stroke-opacity:1"
       inkscape:connector-curvature="0" />
    <path
       id="path4214-1"
       d="m 168.38811,132.56275 v -3.64485 c -2.00346,0 -3.64485,1.64139 -3.64485,3.64485 z"
       style="fill:#000000;fill-opacity:1;fill-rule:evenodd;stroke:none;stroke-width:0.66787392"
       inkscape:connector-curvature="0" />
    <path
       id="path4216-8"
       d="m 168.38811,132.56275 v -3.64485 c -2.00346,0 -3.64485,1.64139 -3.64485,3.64485 z"
       style="fill:none;stroke:#000000;stroke-width:0.38620991px;stroke-linecap:round;stroke-linejoin:round;stroke-miterlimit:4;stroke-dasharray:none;stroke-opacity:1"
       inkscape:connector-curvature="0" />
    <path
       id="path4218-1"
       d="m 168.38811,132.56275 h -3.64485 c 0,2.0276 1.64139,3.64486 3.64485,3.64486 z"
       style="fill:#ffffff;fill-opacity:1;fill-rule:evenodd;stroke:none;stroke-width:0.66787392"
       inkscape:connector-curvature="0" />
    <path
       id="path4220-9"
       d="m 168.38811,132.56275 h -3.64485 c 0,2.0276 1.64139,3.64486 3.64485,3.64486 z"
       style="fill:none;stroke:#000000;stroke-width:0.38620991px;stroke-linecap:round;stroke-linejoin:round;stroke-miterlimit:4;stroke-dasharray:none;stroke-opacity:1"
       inkscape:connector-curvature="0" />
    <path
       id="path4222-4"
       d="m 168.38811,132.56275 v 3.64486 c 2.02761,0 3.669,-1.61726 3.669,-3.64486 z"
       style="fill:#000000;fill-opacity:1;fill-rule:evenodd;stroke:none;stroke-width:0.66787392"
       inkscape:connector-curvature="0" />
    <path
       id="path4224-0"
       d="m 168.38811,132.56275 v 3.64486 c 2.02761,0 3.669,-1.61726 3.669,-3.64486 z"
       style="fill:none;stroke:#000000;stroke-width:0.38620991px;stroke-linecap:round;stroke-linejoin:round;stroke-miterlimit:4;stroke-dasharray:none;stroke-opacity:1"
       inkscape:connector-curvature="0" />
    <path
       id="path4158-7"
       d="m 252.9838,112.01254 h 10.81388"
       style="fill:none;stroke:#ff0000;stroke-width:1.54483962px;stroke-linecap:round;stroke-linejoin:round;stroke-miterlimit:4;stroke-dasharray:none;stroke-opacity:1"
       inkscape:connector-curvature="0" />
    <path
       id="path4160-4"
       d="m 263.09767,109.16425 5.67247,2.84829 -5.67247,2.84831 z"
       style="fill:#ff0000;fill-opacity:1;fill-rule:evenodd;stroke:none;stroke-width:0.66787392"
       inkscape:connector-curvature="0" />
    <path
       id="path4198-2"
       d="M 252.9838,112.01254 V 101.48833"
       style="fill:none;stroke:#000080;stroke-width:1.54483962px;stroke-linecap:round;stroke-linejoin:round;stroke-miterlimit:4;stroke-dasharray:none;stroke-opacity:1"
       inkscape:connector-curvature="0" />
    <path
       id="path4200-6"
       d="m 250.1355,102.21246 2.8483,-5.696559 2.8483,5.696559 z"
       style="fill:#000080;fill-opacity:1;fill-rule:evenodd;stroke:none;stroke-width:0.66787392"
       inkscape:connector-curvature="0" />
    <path
       id="path4210-1"
       d="m 252.79069,111.84358 h 3.669 c 0,-2.00346 -1.64139,-3.64485 -3.669,-3.64485 z"
       style="fill:#ffffff;fill-opacity:1;fill-rule:evenodd;stroke:none;stroke-width:0.66787392"
       inkscape:connector-curvature="0" />
    <path
       id="path4212-9"
       d="m 252.79069,111.84358 h 3.669 c 0,-2.00346 -1.64139,-3.64485 -3.669,-3.64485 z"
       style="fill:none;stroke:#000000;stroke-width:0.38620991px;stroke-linecap:round;stroke-linejoin:round;stroke-miterlimit:4;stroke-dasharray:none;stroke-opacity:1"
       inkscape:connector-curvature="0" />
    <path
       id="path4214-0"
       d="m 252.79069,111.84358 v -3.64485 c -2.00346,0 -3.64485,1.64139 -3.64485,3.64485 z"
       style="fill:#000000;fill-opacity:1;fill-rule:evenodd;stroke:none;stroke-width:0.66787392"
       inkscape:connector-curvature="0" />
    <path
       id="path4216-0"
       d="m 252.79069,111.84358 v -3.64485 c -2.00346,0 -3.64485,1.64139 -3.64485,3.64485 z"
       style="fill:none;stroke:#000000;stroke-width:0.38620991px;stroke-linecap:round;stroke-linejoin:round;stroke-miterlimit:4;stroke-dasharray:none;stroke-opacity:1"
       inkscape:connector-curvature="0" />
    <path
       id="path4218-8"
       d="m 252.79069,111.84358 h -3.64485 c 0,2.0276 1.64139,3.64486 3.64485,3.64486 z"
       style="fill:#ffffff;fill-opacity:1;fill-rule:evenodd;stroke:none;stroke-width:0.66787392"
       inkscape:connector-curvature="0" />
    <path
       id="path4220-92"
       d="m 252.79069,111.84358 h -3.64485 c 0,2.0276 1.64139,3.64486 3.64485,3.64486 z"
       style="fill:none;stroke:#000000;stroke-width:0.38620991px;stroke-linecap:round;stroke-linejoin:round;stroke-miterlimit:4;stroke-dasharray:none;stroke-opacity:1"
       inkscape:connector-curvature="0" />
    <path
       id="path4222-1"
       d="m 252.79069,111.84358 v 3.64486 c 2.02761,0 3.669,-1.61726 3.669,-3.64486 z"
       style="fill:#000000;fill-opacity:1;fill-rule:evenodd;stroke:none;stroke-width:0.66787392"
       inkscape:connector-curvature="0" />
    <path
       id="path4224-8"
       d="m 252.79069,111.84358 v 3.64486 c 2.02761,0 3.669,-1.61726 3.669,-3.64486 z"
       style="fill:none;stroke:#000000;stroke-width:0.38620991px;stroke-linecap:round;stroke-linejoin:round;stroke-miterlimit:4;stroke-dasharray:none;stroke-opacity:1"
       inkscape:connector-curvature="0" />
    <path
       id="path4625"
       d="M 20.39379,219.9661 H 43.250234"
       style="fill:#ff0000;stroke:#ff0000;stroke-width:1.26760185px;stroke-linecap:round;stroke-linejoin:round;stroke-miterlimit:4;stroke-dasharray:none;stroke-opacity:1"
       inkscape:connector-curvature="0" />
    <path
       id="path4627"
       d="m 42.656047,217.62896 4.674281,2.33714 -4.674281,2.33714 z"
       style="fill:#ff0000;fill-opacity:1;fill-rule:evenodd;stroke:none;stroke-width:0.54801685"
       inkscape:connector-curvature="0" />
    <path
       id="path4647"
       d="M 20.39379,219.9661 V 197.96132"
       style="fill:none;stroke:#000080;stroke-width:1.26760185px;stroke-linecap:round;stroke-linejoin:round;stroke-miterlimit:4;stroke-dasharray:none;stroke-opacity:1"
       inkscape:connector-curvature="0" />
    <path
       id="path4649"
       d="m 18.056648,198.55551 2.337142,-4.67428 2.337141,4.67428 z"
       style="fill:#000080;fill-opacity:1;fill-rule:evenodd;stroke:none;stroke-width:0.54801685"
       inkscape:connector-curvature="0" />
    <path
       inkscape:connector-curvature="0"
       style="fill:#ff0000;stroke:#ff0000;stroke-width:1.35692883px;stroke-linecap:round;stroke-linejoin:round;stroke-miterlimit:4;stroke-dasharray:none;stroke-opacity:1"
       d="m 102.86583,198.62022 18.59416,-0.16962"
       id="path4701" />
    <path
       inkscape:connector-curvature="0"
       style="fill:#ff0000;fill-opacity:1;fill-rule:evenodd;stroke:none"
       d="m 120.82392,195.96995 5.00368,2.43824 -4.96126,2.54424 z"
       id="path4703" />
    <path
       inkscape:connector-curvature="0"
       style="fill:none;stroke:#000080;stroke-width:1.35692883px;stroke-linecap:round;stroke-linejoin:round;stroke-miterlimit:4;stroke-dasharray:none;stroke-opacity:1"
       d="M 102.86583,198.62022 V 180.45008"
       id="path4711" />
    <path
       inkscape:connector-curvature="0"
       style="fill:#000080;fill-opacity:1;fill-rule:evenodd;stroke:none"
       d="m 100.36398,181.06495 2.50185,-5.00367 2.48063,5.00367 z"
       id="path4713" />
    <path
       inkscape:connector-curvature="0"
       style="fill:#ffffff;fill-opacity:1;fill-rule:evenodd;stroke:none"
       d="m 102.69622,198.49299 h 3.20148 c 0,-1.78096 -1.44173,-3.2227 -3.20148,-3.2227 z"
       id="path4733" />
    <path
       inkscape:connector-curvature="0"
       style="fill:none;stroke:#000000;stroke-width:0.33923221px;stroke-linecap:round;stroke-linejoin:round;stroke-miterlimit:4;stroke-dasharray:none;stroke-opacity:1"
       d="m 102.69622,198.49299 h 3.20148 c 0,-1.78096 -1.44173,-3.2227 -3.20148,-3.2227 z"
       id="path4735" />
    <path
       inkscape:connector-curvature="0"
       style="fill:#000000;fill-opacity:1;fill-rule:evenodd;stroke:none"
       d="m 102.69622,198.49299 v -3.2227 c -1.78097,0 -3.201514,1.44174 -3.201514,3.2227 z"
       id="path4737" />
    <path
       inkscape:connector-curvature="0"
       style="fill:none;stroke:#000000;stroke-width:0.33923221px;stroke-linecap:round;stroke-linejoin:round;stroke-miterlimit:4;stroke-dasharray:none;stroke-opacity:1"
       d="m 102.69622,198.49299 v -3.2227 c -1.78097,0 -3.201514,1.44174 -3.201514,3.2227 z"
       id="path4739" />
    <path
       inkscape:connector-curvature="0"
       style="fill:#ffffff;fill-opacity:1;fill-rule:evenodd;stroke:none"
       d="m 102.69622,198.49299 h -3.201514 c 0,1.75978 1.420544,3.20151 3.201514,3.20151 z"
       id="path4741" />
    <path
       inkscape:connector-curvature="0"
       style="fill:none;stroke:#000000;stroke-width:0.33923221px;stroke-linecap:round;stroke-linejoin:round;stroke-miterlimit:4;stroke-dasharray:none;stroke-opacity:1"
       d="m 102.69622,198.49299 h -3.201514 c 0,1.75978 1.420544,3.20151 3.201514,3.20151 z"
       id="path4743" />
    <path
       inkscape:connector-curvature="0"
       style="fill:#000000;fill-opacity:1;fill-rule:evenodd;stroke:none"
       d="m 102.69622,198.49299 v 3.20151 c 1.75975,0 3.20148,-1.44173 3.20148,-3.20151 z"
       id="path4745" />
    <path
       inkscape:connector-curvature="0"
       style="fill:none;stroke:#000000;stroke-width:0.33923221px;stroke-linecap:round;stroke-linejoin:round;stroke-miterlimit:4;stroke-dasharray:none;stroke-opacity:1"
       d="m 102.69622,198.49299 v 3.20151 c 1.75975,0 3.20148,-1.44173 3.20148,-3.20151 z"
       id="path4747" />
    <path
       inkscape:connector-curvature="0"
       style="fill:#ff0000;stroke:#ff0000;stroke-width:1.26760185px;stroke-linecap:round;stroke-linejoin:round;stroke-miterlimit:4;stroke-dasharray:none;stroke-opacity:1"
       d="m 213.81286,219.13363 h 22.85645"
       id="path4625-3" />
    <path
       inkscape:connector-curvature="0"
       style="fill:#ff0000;fill-opacity:1;fill-rule:evenodd;stroke:none;stroke-width:0.54801685"
       d="m 236.07512,216.79649 4.67428,2.33714 -4.67428,2.33714 z"
       id="path4627-6" />
    <path
       inkscape:connector-curvature="0"
       style="fill:none;stroke:#000080;stroke-width:1.26760185px;stroke-linecap:round;stroke-linejoin:round;stroke-miterlimit:4;stroke-dasharray:none;stroke-opacity:1"
       d="M 213.81286,219.13363 V 197.12885"
       id="path4647-0" />
    <path
       inkscape:connector-curvature="0"
       style="fill:#000080;fill-opacity:1;fill-rule:evenodd;stroke:none;stroke-width:0.54801685"
       d="m 211.47572,197.72304 2.33714,-4.67428 2.33714,4.67428 z"
       id="path4649-7" />
    <g
       id="g236"
       transform="translate(84.457171,150.58013)">
      <g
         word-spacing="normal"
         letter-spacing="normal"
         font-size-adjust="none"
         font-stretch="normal"
         font-weight="normal"
         font-variant="normal"
         font-style="normal"
         stroke-miterlimit="10.433"
         xml:space="preserve"
         transform="matrix(0.3,0,0,-0.3,-52.5,222.75)"
         id="g440"
         style="font-style:normal;font-variant:normal;font-weight:normal;font-stretch:normal;letter-spacing:normal;word-spacing:normal;text-anchor:start;fill:none;fill-opacity:1;fill-rule:evenodd;stroke:#000000;stroke-linecap:butt;stroke-linejoin:miter;stroke-miterlimit:10.43299961;stroke-dasharray:none;stroke-dashoffset:0;stroke-opacity:1"><g
           id="g438"><g
             id="g626"
             transform="matrix(0.3,0,0,-0.3,-52.5,222.75)"
             xml:space="preserve"
             stroke-miterlimit="10.433"
             font-style="normal"
             font-variant="normal"
             font-weight="normal"
             font-stretch="normal"
             font-size-adjust="none"
             letter-spacing="normal"
             word-spacing="normal"
             style="font-style:normal;font-variant:normal;font-weight:normal;font-stretch:normal;letter-spacing:normal;word-spacing:normal;text-anchor:start;fill:none;fill-opacity:1;fill-rule:evenodd;stroke:#000000;stroke-linecap:butt;stroke-linejoin:miter;stroke-miterlimit:10.43299961;stroke-dasharray:none;stroke-dashoffset:0;stroke-opacity:1"><g
               id="g624"><g
                 word-spacing="normal"
                 letter-spacing="normal"
                 font-size-adjust="none"
                 font-stretch="normal"
                 font-weight="normal"
                 font-variant="normal"
                 font-style="normal"
                 stroke-miterlimit="10.433"
                 xml:space="preserve"
                 transform="matrix(0.3,0,0,-0.3,-52.5,222.75)"
                 id="content"
                 style="font-style:normal;font-variant:normal;font-weight:normal;font-stretch:normal;letter-spacing:normal;word-spacing:normal;text-anchor:start;fill:none;fill-opacity:1;fill-rule:evenodd;stroke:#000000;stroke-linecap:butt;stroke-linejoin:miter;stroke-miterlimit:10.43299961;stroke-dasharray:none;stroke-dashoffset:0;stroke-opacity:1" /></g></g></g></g>    </g>
    <path
       sodipodi:nodetypes="cccccccscssscccccc"
       inkscape:connector-curvature="0"
       id="path4658"
       d="m 256.74348,214.73388 c -4.35646,-0.79305 -8.077,-3.5745 -9.97799,-7.45946 -0.37719,-0.77083 -0.74786,-1.58061 -0.82371,-1.7995 l -0.13788,-0.39796 -0.16365,0.39796 c -0.0986,0.23993 -0.16919,-0.60954 -0.17762,-2.13905 l -0.014,-2.53699 h 0.57123 c 0.55144,0 0.57601,0.0419 0.70829,1.21128 0.5823,5.14682 4.12902,9.43407 9.06749,10.96073 3.2257,0.99718 7.26564,0.42033 10.16066,-1.45081 3.24826,-2.09945 5.23837,-5.23616 5.80987,-9.15723 l 0.22795,-1.56397 h 1.4799 c 0.004,2.77248 -0.44283,3.74828 -1.28014,5.69421 -1.45855,3.58866 -4.69121,6.52938 -8.53431,7.76357 -1.7578,0.56449 -5.15064,0.79861 -6.91611,0.47722 z"
       style="fill:#4d4d4d;fill-opacity:0.99455339;stroke-width:0.1989809" />
  </g>
  <g
     transform="translate(-59.013113,31.259439)"
     id="g4474">
    <g
       style="font-style:normal;font-variant:normal;font-weight:normal;font-stretch:normal;letter-spacing:normal;word-spacing:normal;text-anchor:start;fill:none;fill-opacity:1;fill-rule:evenodd;stroke:#000000;stroke-linecap:butt;stroke-linejoin:miter;stroke-miterlimit:10.43299961;stroke-dasharray:none;stroke-dashoffset:0;stroke-opacity:1"
       id="g4476"
       transform="matrix(0.21428571,0,0,-0.21428571,-37.5,199.5)"
       xml:space="preserve"
       stroke-miterlimit="10.433"
       font-style="normal"
       font-variant="normal"
       font-weight="normal"
       font-stretch="normal"
       font-size-adjust="none"
       letter-spacing="normal"
       word-spacing="normal"><path
         style="fill:#000000;stroke-width:0"
         inkscape:connector-curvature="0"
         d="m 492.02,419.65 h -2.35 c -1.09,-6.88 -2.49,-11.31 -11.7,-11.31 h -7.58 v 14.05 h 2.75 c 4.78,0 5.27,-2.14 5.27,-5.83 h 2.35 v 14 h -2.35 c 0,-3.69 -0.44,-5.83 -5.27,-5.83 h -2.75 v 12.8 h 7.58 c 8.02,0 9.31,-3.64 10.11,-9.66 h 2.34 l -1.54,12 h -30.94 v -2.34 h 5.38 v -29.19 h -5.38 V 406 h 31.78 z"
         id="path4478" /><path
         style="fill:#000000;stroke-width:0"
         inkscape:connector-curvature="0"
         d="m 510.99,410.12 v 0.71 l -0.02,0.68 -0.03,0.66 -0.04,0.64 -0.06,0.62 -0.08,0.59 -0.09,0.58 -0.11,0.56 -0.12,0.55 -0.15,0.53 -0.17,0.51 -0.19,0.5 -0.21,0.49 -0.24,0.48 -0.26,0.47 -0.14,0.24 -0.15,0.23 c -1.07,1.6 -3.24,2.99 -6.03,2.99 v -0.97 c 1.89,0 3.7,-1.15 4.33,-3.18 0.56,-1.88 0.59,-4.39 0.59,-7.42 0,-2.58 0,-5.17 -0.45,-7.36 -0.7,-3.17 -3.07,-3.94 -4.47,-3.94 v 0 c -1.6,0 -3.73,0.94 -4.43,3.8 -0.49,2.06 -0.49,4.92 -0.49,7.5 0,2.54 0,5.19 0.53,7.11 0.73,2.76 2.96,3.49 4.39,3.49 v 0.97 c -8.09,0 -8.09,-9.52 -8.09,-12.03 0,-2.51 0,-11.82 8.09,-11.82 8.09,0 8.09,9.31 8.09,11.82 z"
         id="path4480" /></g>  </g>
  <g
     transform="translate(21.673843,12.443662)"
     id="g4842">
    <g
       style="font-style:normal;font-variant:normal;font-weight:normal;font-stretch:normal;letter-spacing:normal;word-spacing:normal;text-anchor:start;fill:none;stroke:#000000;stroke-linecap:butt;stroke-linejoin:miter;stroke-miterlimit:10.43299961;stroke-dasharray:none;stroke-dashoffset:0;stroke-opacity:1"
       id="g4844"
       transform="matrix(0.21428571,0,0,-0.21428571,-37.5,199.5)"
       xml:space="preserve"
       stroke-miterlimit="10.433"
       font-style="normal"
       font-variant="normal"
       font-weight="normal"
       font-stretch="normal"
       font-size-adjust="none"
       letter-spacing="normal"
       word-spacing="normal"><path
         style="fill:#000000;stroke-width:0"
         inkscape:connector-curvature="0"
         d="m 492.02,419.65 h -2.35 c -1.09,-6.88 -2.49,-11.31 -11.7,-11.31 h -7.58 v 14.05 h 2.75 c 4.78,0 5.27,-2.14 5.27,-5.83 h 2.35 v 14 h -2.35 c 0,-3.69 -0.44,-5.83 -5.27,-5.83 h -2.75 v 12.8 h 7.58 c 8.02,0 9.31,-3.64 10.11,-9.66 h 2.34 l -1.54,12 h -30.94 v -2.34 h 5.38 v -29.19 h -5.38 V 406 h 31.78 z"
         id="path4846" /><path
         style="fill:#000000;stroke-width:0"
         inkscape:connector-curvature="0"
         d="m 502.21,422.15 v 0.01 0 0 0.01 l 0.01,0.01 v 0 0.01 0 l 0.01,0.02 v 0.02 l 0.01,0.02 v 0.01 l 0.01,0.02 v 0.03 l 0.01,0.02 0.01,0.02 v 0.02 l 0.01,0.03 0.01,0.04 0.01,0.05 v 0.03 l 0.01,0.02 v 0.02 l 0.01,0.02 v 0.02 l 0.01,0.02 v 0.02 0.01 l 0.01,0.01 v 0.01 0 0.01 0.01 0 0.01 0 0 0.01 0 0 c 0,0.18 -0.13,0.49 -0.55,0.49 -0.7,0 -3.59,-0.28 -4.47,-0.35 -0.28,-0.03 -0.76,-0.07 -0.76,-0.8 0,-0.49 0.48,-0.49 0.9,-0.49 1.68,0 1.68,-0.24 1.68,-0.52 0,-0.25 -0.35,-1.64 -0.56,-2.44 l -0.8,-3.21 c -0.32,-1.19 -2.23,-8.82 -2.3,-9.28 -0.18,-0.83 -0.18,-1.29 -0.18,-1.7 0,-3.53 2.23,-5.76 5.13,-5.76 l 0.03,0.98 c -1.71,0 -2.68,1.5 -2.68,3.55 0,1.29 0.31,2.48 1.29,6.42 0.21,0.66 0.21,0.73 0.87,1.5 1.33,1.53 2.89,2.3 4.15,2.3 1.36,0 2.54,-1.01 2.54,-3.38 0,-1.43 -0.76,-4.99 -1.81,-7.01 -0.84,-1.71 -2.58,-3.38 -4.36,-3.38 v 0 l -0.03,-0.98 c 4.36,0 8.99,4.74 8.99,9.9 0,4.08 -2.82,5.83 -5.23,5.83 -1.81,0 -3.35,-1.01 -4.39,-1.92 z"
         id="path4848" /></g>  </g>
  <g
     id="g5032"
     transform="translate(121.2852,-54.551903)">
    <g
       word-spacing="normal"
       letter-spacing="normal"
       font-size-adjust="none"
       font-stretch="normal"
       font-weight="normal"
       font-variant="normal"
       font-style="normal"
       stroke-miterlimit="10.433"
       xml:space="preserve"
       transform="matrix(0.21428571,0,0,-0.21428571,-37.5,199.5)"
       id="g5034"
       style="font-style:normal;font-variant:normal;font-weight:normal;font-stretch:normal;letter-spacing:normal;word-spacing:normal;text-anchor:start;fill:none;fill-opacity:1;fill-rule:evenodd;stroke:#000000;stroke-linecap:butt;stroke-linejoin:miter;stroke-miterlimit:10.43299961;stroke-dasharray:none;stroke-dashoffset:0;stroke-opacity:1"><path
         id="path5036"
         d="m 492.02,419.65 h -2.35 c -1.09,-6.88 -2.49,-11.31 -11.7,-11.31 h -7.58 v 14.05 h 2.75 c 4.78,0 5.27,-2.14 5.27,-5.83 h 2.35 v 14 h -2.35 c 0,-3.69 -0.44,-5.83 -5.27,-5.83 h -2.75 v 12.8 h 7.58 c 8.02,0 9.31,-3.64 10.11,-9.66 h 2.34 l -1.54,12 h -30.94 v -2.34 h 5.38 v -29.19 h -5.38 V 406 h 31.78 z"
         inkscape:connector-curvature="0"
         style="fill:#000000;stroke-width:0" /><path
         id="path5038"
         d="m 504.68,421.18 v 0.04 0.04 0.04 0.04 0.04 0.04 0.03 0.04 l -0.01,0.03 v 0.03 0.04 0.03 l -0.01,0.02 v 0.03 0.03 l -0.01,0.03 v 0.02 0.02 l -0.02,0.05 -0.01,0.04 -0.01,0.04 -0.02,0.03 -0.02,0.03 -0.02,0.03 -0.03,0.03 -0.02,0.02 -0.03,0.02 -0.04,0.02 -0.03,0.01 -0.04,0.01 -0.05,0.02 h -0.05 l -0.02,0.01 h -0.03 l -0.03,0.01 h -0.02 -0.03 -0.03 -0.04 l -0.03,0.01 h -0.03 -0.04 -0.03 -0.04 -0.04 -0.04 -0.04 -0.04 -0.05 -0.04 c -2.24,-2.19 -5.41,-2.23 -6.84,-2.23 v -1.25 c 0.84,0 3.14,0 5.06,0.97 v -17.78 c 0,-1.15 0,-1.61 -3.49,-1.61 h -1.33 V 399 h 12.45 v 1.25 h -1.32 c -3.49,0 -3.49,0.46 -3.49,1.61 z"
         inkscape:connector-curvature="0"
         style="fill:#000000;stroke-width:0" /></g>  </g>
  <g
     id="g5230"
     transform="translate(122.14046,-98.45538)">
    <g
       id="g5232"
       transform="matrix(0.21428571,0,0,-0.21428571,-37.5,199.5)"
       xml:space="preserve"
       stroke-miterlimit="10.433"
       font-style="normal"
       font-variant="normal"
       font-weight="normal"
       font-stretch="normal"
       font-size-adjust="none"
       letter-spacing="normal"
       word-spacing="normal"
       style="font-style:normal;font-variant:normal;font-weight:normal;font-stretch:normal;letter-spacing:normal;word-spacing:normal;text-anchor:start;fill:none;fill-opacity:1;fill-rule:evenodd;stroke:#000000;stroke-linecap:butt;stroke-linejoin:miter;stroke-miterlimit:10.43299961;stroke-dasharray:none;stroke-dashoffset:0;stroke-opacity:1"><path
         d="m 492.02,419.65 h -2.35 c -1.09,-6.88 -2.49,-11.31 -11.7,-11.31 h -7.58 v 14.05 h 2.75 c 4.78,0 5.27,-2.14 5.27,-5.83 h 2.35 v 14 h -2.35 c 0,-3.69 -0.44,-5.83 -5.27,-5.83 h -2.75 v 12.8 h 7.58 c 8.02,0 9.31,-3.64 10.11,-9.66 h 2.34 l -1.54,12 h -30.94 v -2.34 h 5.38 v -29.19 h -5.38 V 406 h 31.78 z"
         id="path5234"
         inkscape:connector-curvature="0"
         style="fill:#000000;stroke-width:0" /><path
         d="m 510.61,405.35 h -1.19 c -0.1,-0.77 -0.45,-2.83 -0.9,-3.18 -0.28,-0.21 -2.97,-0.21 -3.45,-0.21 h -6.42 c 3.66,3.25 4.88,4.22 6.97,5.86 2.58,2.06 4.99,4.22 4.99,7.54 0,4.21 -3.7,6.79 -8.16,6.79 -4.33,0 -7.25,-3.03 -7.25,-6.24 0,-1.78 1.5,-1.95 1.84,-1.95 0.84,0 1.85,0.59 1.85,1.85 0,0.62 -0.24,1.85 -2.05,1.85 1.08,2.47 3.45,3.24 5.09,3.24 3.48,0 5.3,-2.72 5.3,-5.54 0,-3.04 -2.16,-5.45 -3.28,-6.7 l -8.4,-8.3 c -0.35,-0.31 -0.35,-0.38 -0.35,-1.36 h 14.36 z"
         id="path5236"
         inkscape:connector-curvature="0"
         style="fill:#000000;stroke-width:0" /></g>  </g>
  <g
     id="g5876"
     transform="translate(98.478208,-98.45538)">
    <g
       word-spacing="normal"
       letter-spacing="normal"
       font-size-adjust="none"
       font-stretch="normal"
       font-weight="normal"
       font-variant="normal"
       font-style="normal"
       stroke-miterlimit="10.433"
       xml:space="preserve"
       transform="matrix(0.21428571,0,0,-0.21428571,-37.5,199.5)"
       id="g5878"
       style="font-style:normal;font-variant:normal;font-weight:normal;font-stretch:normal;letter-spacing:normal;word-spacing:normal;text-anchor:start;fill:none;fill-opacity:1;fill-rule:evenodd;stroke:#000000;stroke-linecap:butt;stroke-linejoin:miter;stroke-miterlimit:10.43299961;stroke-dasharray:none;stroke-dashoffset:0;stroke-opacity:1"><path
         id="path5880"
         d="m 492.02,419.65 h -2.35 c -1.09,-6.88 -2.49,-11.31 -11.7,-11.31 h -7.58 v 14.05 h 2.75 c 4.78,0 5.27,-2.14 5.27,-5.83 h 2.35 v 14 h -2.35 c 0,-3.69 -0.44,-5.83 -5.27,-5.83 h -2.75 v 12.8 h 7.58 c 8.02,0 9.31,-3.64 10.11,-9.66 h 2.34 l -1.54,12 h -30.94 v -2.34 h 5.38 v -29.19 h -5.38 V 406 h 31.78 z"
         inkscape:connector-curvature="0"
         style="fill:#000000;stroke-width:0" /><polygon
         id="polygon5882"
         points="495.96,422.39 509.84,422.39 509.84,423.71 495.96,423.71 "
         style="fill:#000000;stroke-width:0" /><path
         id="path5884"
         d="m 510.61,402.35 h -1.19 c -0.1,-0.77 -0.45,-2.83 -0.9,-3.18 -0.28,-0.21 -2.97,-0.21 -3.45,-0.21 h -6.42 c 3.66,3.25 4.88,4.22 6.97,5.86 2.58,2.06 4.99,4.22 4.99,7.54 0,4.21 -3.7,6.79 -8.16,6.79 -4.33,0 -7.25,-3.03 -7.25,-6.24 0,-1.78 1.5,-1.95 1.84,-1.95 0.84,0 1.85,0.59 1.85,1.85 0,0.62 -0.24,1.85 -2.05,1.85 1.08,2.47 3.45,3.24 5.09,3.24 3.48,0 5.3,-2.72 5.3,-5.54 0,-3.04 -2.16,-5.45 -3.28,-6.7 l -8.4,-8.3 c -0.35,-0.31 -0.35,-0.38 -0.35,-1.36 h 14.36 z"
         inkscape:connector-curvature="0"
         style="fill:#000000;stroke-width:0" /></g>  </g>
  <g
     id="g6112"
     transform="translate(120.71503,-24.617713)">
    <g
       id="g6114"
       transform="matrix(0.21428571,0,0,-0.21428571,-37.5,199.5)"
       xml:space="preserve"
       stroke-miterlimit="10.433"
       font-style="normal"
       font-variant="normal"
       font-weight="normal"
       font-stretch="normal"
       font-size-adjust="none"
       letter-spacing="normal"
       word-spacing="normal"
       style="font-style:normal;font-variant:normal;font-weight:normal;font-stretch:normal;letter-spacing:normal;word-spacing:normal;text-anchor:start;fill:none;fill-opacity:1;fill-rule:evenodd;stroke:#000000;stroke-linecap:butt;stroke-linejoin:miter;stroke-miterlimit:10.43299961;stroke-dasharray:none;stroke-dashoffset:0;stroke-opacity:1"><path
         d="m 492.02,419.65 h -2.35 c -1.09,-6.88 -2.49,-11.31 -11.7,-11.31 h -7.58 v 14.05 h 2.75 c 4.78,0 5.27,-2.14 5.27,-5.83 h 2.35 v 14 h -2.35 c 0,-3.69 -0.44,-5.83 -5.27,-5.83 h -2.75 v 12.8 h 7.58 c 8.02,0 9.31,-3.64 10.11,-9.66 h 2.34 l -1.54,12 h -30.94 v -2.34 h 5.38 v -29.19 h -5.38 V 406 h 31.78 z"
         id="path6116"
         inkscape:connector-curvature="0"
         style="fill:#000000;stroke-width:0" /><polygon
         points="495.96,422.39 509.84,422.39 509.84,423.71 495.96,423.71 "
         id="polygon6118"
         style="fill:#000000;stroke-width:0" /><path
         d="m 504.68,418.18 v 0.04 0.04 0.04 0.04 0.04 0.04 0.03 0.04 l -0.01,0.03 v 0.03 0.04 0.03 l -0.01,0.02 v 0.03 0.03 l -0.01,0.03 v 0.02 0.02 l -0.02,0.05 -0.01,0.04 -0.01,0.04 -0.02,0.03 -0.02,0.03 -0.02,0.03 -0.03,0.03 -0.02,0.02 -0.03,0.02 -0.04,0.02 -0.03,0.01 -0.04,0.01 -0.05,0.02 h -0.05 l -0.02,0.01 h -0.03 l -0.03,0.01 h -0.02 -0.03 -0.03 -0.04 l -0.03,0.01 h -0.03 -0.04 -0.03 -0.04 -0.04 -0.04 -0.04 -0.04 -0.05 -0.04 c -2.24,-2.19 -5.41,-2.23 -6.84,-2.23 v -1.25 c 0.84,0 3.14,0 5.06,0.97 v -17.78 c 0,-1.15 0,-1.61 -3.49,-1.61 h -1.33 V 396 h 12.45 v 1.25 h -1.32 c -3.49,0 -3.49,0.46 -3.49,1.61 z"
         id="path6120"
         inkscape:connector-curvature="0"
         style="fill:#000000;stroke-width:0" /></g>  </g>
  <g
     id="g6358"
     transform="translate(136.27182,31.544527)">
    <g
       word-spacing="normal"
       letter-spacing="normal"
       font-size-adjust="none"
       font-stretch="normal"
       font-weight="normal"
       font-variant="normal"
       font-style="normal"
       stroke-miterlimit="10.433"
       xml:space="preserve"
       transform="matrix(0.21428571,0,0,-0.21428571,-37.5,199.5)"
       id="g6360"
       style="font-style:normal;font-variant:normal;font-weight:normal;font-stretch:normal;letter-spacing:normal;word-spacing:normal;text-anchor:start;fill:none;fill-opacity:1;fill-rule:evenodd;stroke:#000000;stroke-linecap:butt;stroke-linejoin:miter;stroke-miterlimit:10.43299961;stroke-dasharray:none;stroke-dashoffset:0;stroke-opacity:1"><path
         id="path6362"
         d="m 492.02,419.65 h -2.35 c -1.09,-6.88 -2.49,-11.31 -11.7,-11.31 h -7.58 v 14.05 h 2.75 c 4.78,0 5.27,-2.14 5.27,-5.83 h 2.35 v 14 h -2.35 c 0,-3.69 -0.44,-5.83 -5.27,-5.83 h -2.75 v 12.8 h 7.58 c 8.02,0 9.31,-3.64 10.11,-9.66 h 2.34 l -1.54,12 h -30.94 v -2.34 h 5.38 v -29.19 h -5.38 V 406 h 31.78 z"
         inkscape:connector-curvature="0"
         style="fill:#000000;stroke-width:0" /><path
         id="path6364"
         d="m 501.58,412.77 h 3.55 c 0.67,0 1.12,0 1.12,0.77 0,0.49 -0.45,0.49 -1.05,0.49 h -3.31 l 1.29,5.16 c 0.03,0.17 0.11,0.35 0.11,0.49 0,0.62 -0.49,1.11 -1.19,1.11 -0.87,0 -1.39,-0.59 -1.64,-1.5 -0.24,-0.87 0.21,0.81 -1.32,-5.26 h -3.56 c -0.66,0 -1.12,0 -1.12,-0.77 0,-0.49 0.42,-0.49 1.05,-0.49 h 3.31 l -2.05,-8.23 c -0.21,-0.87 -0.53,-2.12 -0.53,-2.58 0,-2.05 1.74,-3.31 3.73,-3.31 3.87,0 6.07,4.88 6.07,5.33 0,0.46 -0.45,0.46 -0.56,0.46 -0.41,0 -0.45,-0.07 -0.73,-0.66 -0.98,-2.2 -2.75,-4.15 -4.67,-4.15 -0.73,0 -1.22,0.45 -1.22,1.71 0,0.34 0.14,1.08 0.21,1.43 z"
         inkscape:connector-curvature="0"
         style="fill:#000000;stroke-width:0" /></g>  </g>
  <g
     transform="translate(144.09221,-98.45538)"
     id="g6605">
    <g
       style="font-style:normal;font-variant:normal;font-weight:normal;font-stretch:normal;letter-spacing:normal;word-spacing:normal;text-anchor:start;fill:none;fill-opacity:1;fill-rule:evenodd;stroke:#000000;stroke-linecap:butt;stroke-linejoin:miter;stroke-miterlimit:10.43299961;stroke-dasharray:none;stroke-dashoffset:0;stroke-opacity:1"
       id="g6607"
       transform="matrix(0.21428571,0,0,-0.21428571,-37.5,199.5)"
       xml:space="preserve"
       stroke-miterlimit="10.433"
       font-style="normal"
       font-variant="normal"
       font-weight="normal"
       font-stretch="normal"
       font-size-adjust="none"
       letter-spacing="normal"
       word-spacing="normal"><path
         style="fill:#000000;stroke-width:0"
         inkscape:connector-curvature="0"
         d="m 492.02,419.65 h -2.35 c -1.09,-6.88 -2.49,-11.31 -11.7,-11.31 h -7.58 v 14.05 h 2.75 c 4.78,0 5.27,-2.14 5.27,-5.83 h 2.35 v 14 h -2.35 c 0,-3.69 -0.44,-5.83 -5.27,-5.83 h -2.75 v 12.8 h 7.58 c 8.02,0 9.31,-3.64 10.11,-9.66 h 2.34 l -1.54,12 h -30.94 v -2.34 h 5.38 v -29.19 h -5.38 V 406 h 31.78 z"
         id="path6609" /><polygon
         style="fill:#000000;stroke-width:0"
         points="495.96,423.71 495.96,422.39 509.84,422.39 509.84,423.71 "
         id="polygon6611" /><path
         style="fill:#000000;stroke-width:0"
         inkscape:connector-curvature="0"
         d="m 502.52,407.64 h 0.25 l 0.25,-0.02 0.24,-0.02 0.24,-0.04 0.23,-0.05 0.23,-0.06 0.22,-0.07 0.22,-0.09 0.21,-0.09 0.2,-0.11 0.19,-0.11 0.19,-0.13 0.18,-0.13 0.18,-0.15 0.17,-0.16 0.15,-0.17 0.16,-0.18 0.14,-0.2 0.13,-0.2 0.13,-0.21 0.12,-0.23 0.11,-0.23 0.09,-0.25 0.09,-0.26 0.08,-0.27 0.07,-0.28 0.06,-0.29 0.05,-0.3 0.04,-0.31 0.03,-0.32 0.02,-0.33 v -0.35 c 0,-4.32 -2.51,-5.61 -4.53,-5.61 -1.39,0 -4.46,0.38 -5.93,2.44 1.64,0.07 2.02,1.22 2.02,1.95 0,1.12 -0.83,1.92 -1.91,1.92 -0.98,0 -1.96,-0.59 -1.96,-2.02 0,-3.28 3.63,-5.41 7.85,-5.41 4.84,0 8.19,3.25 8.19,6.73 0,2.72 -2.23,5.44 -6.06,6.24 3.66,1.33 4.98,3.94 4.98,6.07 0,2.76 -3.17,4.81 -7.04,4.81 -3.87,0 -6.84,-1.88 -6.84,-4.67 0,-1.18 0.77,-1.85 1.82,-1.85 1.08,0 1.77,0.8 1.77,1.78 0,1.01 -0.69,1.75 -1.77,1.81 1.22,1.54 3.62,1.92 4.92,1.92 1.56,0 3.76,-0.76 3.76,-3.8 0,-1.46 -0.49,-3.07 -1.39,-4.15 -1.16,-1.32 -2.13,-1.39 -3.87,-1.5 -0.88,-0.07 -0.95,-0.07 -1.12,-0.1 -0.07,0 -0.35,-0.07 -0.35,-0.46 0,-0.49 0.31,-0.49 0.91,-0.49 z"
         id="path6613" /></g>  </g>
  <g
     id="g6859"
     transform="translate(168.32464,-98.438188)">
    <g
       word-spacing="normal"
       letter-spacing="normal"
       font-size-adjust="none"
       font-stretch="normal"
       font-weight="normal"
       font-variant="normal"
       font-style="normal"
       stroke-miterlimit="10.433"
       xml:space="preserve"
       transform="matrix(0.21428571,0,0,-0.21428571,-37.5,199.5)"
       id="g6861"
       style="font-style:normal;font-variant:normal;font-weight:normal;font-stretch:normal;letter-spacing:normal;word-spacing:normal;text-anchor:start;fill:none;fill-opacity:1;fill-rule:evenodd;stroke:#000000;stroke-linecap:butt;stroke-linejoin:miter;stroke-miterlimit:10.43299961;stroke-dasharray:none;stroke-dashoffset:0;stroke-opacity:1"><path
         id="path6863"
         d="m 492.02,419.65 h -2.35 c -1.09,-6.88 -2.49,-11.31 -11.7,-11.31 h -7.58 v 14.05 h 2.75 c 4.78,0 5.27,-2.14 5.27,-5.83 h 2.35 v 14 h -2.35 c 0,-3.69 -0.44,-5.83 -5.27,-5.83 h -2.75 v 12.8 h 7.58 c 8.02,0 9.31,-3.64 10.11,-9.66 h 2.34 l -1.54,12 h -30.94 v -2.34 h 5.38 v -29.19 h -5.38 V 406 h 31.78 z"
         inkscape:connector-curvature="0"
         style="fill:#000000;stroke-width:0" /><path
         id="path6865"
         d="m 502.52,410.64 h 0.25 l 0.25,-0.02 0.24,-0.02 0.24,-0.04 0.23,-0.05 0.23,-0.06 0.22,-0.07 0.22,-0.09 0.21,-0.09 0.2,-0.11 0.19,-0.11 0.19,-0.13 0.18,-0.13 0.18,-0.15 0.17,-0.16 0.15,-0.17 0.16,-0.18 0.14,-0.2 0.13,-0.2 0.13,-0.21 0.12,-0.23 0.11,-0.23 0.09,-0.25 0.09,-0.26 0.08,-0.27 0.07,-0.28 0.06,-0.29 0.05,-0.3 0.04,-0.31 0.03,-0.32 0.02,-0.33 v -0.35 c 0,-4.32 -2.51,-5.61 -4.53,-5.61 -1.39,0 -4.46,0.38 -5.93,2.44 1.64,0.07 2.02,1.22 2.02,1.95 0,1.12 -0.83,1.92 -1.91,1.92 -0.98,0 -1.96,-0.59 -1.96,-2.02 0,-3.28 3.63,-5.41 7.85,-5.41 4.84,0 8.19,3.25 8.19,6.73 0,2.72 -2.23,5.44 -6.06,6.24 3.66,1.33 4.98,3.94 4.98,6.07 0,2.76 -3.17,4.81 -7.04,4.81 -3.87,0 -6.84,-1.88 -6.84,-4.67 0,-1.18 0.77,-1.85 1.82,-1.85 1.08,0 1.77,0.8 1.77,1.78 0,1.01 -0.69,1.75 -1.77,1.81 1.22,1.54 3.62,1.92 4.92,1.92 1.56,0 3.76,-0.76 3.76,-3.8 0,-1.46 -0.49,-3.07 -1.39,-4.15 -1.16,-1.32 -2.13,-1.39 -3.87,-1.5 -0.88,-0.07 -0.95,-0.07 -1.12,-0.1 -0.07,0 -0.35,-0.07 -0.35,-0.46 0,-0.49 0.31,-0.49 0.91,-0.49 z"
         inkscape:connector-curvature="0"
         style="fill:#000000;stroke-width:0" /><path
         id="path6867"
         d="m 563.17,427.12 h 0.16 0.16 l 0.16,0.01 h 0.08 l 0.08,0.01 h 0.08 l 0.07,0.01 0.08,0.01 0.07,0.01 0.07,0.02 0.07,0.01 0.07,0.02 0.07,0.03 0.06,0.02 0.06,0.03 0.06,0.03 0.05,0.03 0.05,0.04 0.05,0.04 0.04,0.05 0.04,0.05 0.02,0.03 0.02,0.03 0.02,0.03 0.01,0.03 0.02,0.03 0.01,0.03 0.01,0.03 0.01,0.04 0.01,0.03 0.01,0.04 0.01,0.04 v 0.04 l 0.01,0.04 v 0.05 0.04 l 0.01,0.05 c 0,0.99 -0.9,0.99 -1.75,0.99 h -29.74 c -0.84,0 -1.74,0 -1.74,-0.99 0,-1 0.99,-1 1.79,-1 z"
         inkscape:connector-curvature="0"
         style="fill:#000000;stroke-width:0" /><path
         id="path6869"
         d="m 563.22,407.79 h 0.16 0.16 l 0.16,0.01 h 0.08 l 0.07,0.01 0.08,0.01 H 564 l 0.08,0.01 0.07,0.02 0.07,0.01 0.06,0.02 0.07,0.02 0.06,0.02 0.06,0.02 0.06,0.03 0.06,0.03 0.05,0.04 0.05,0.03 0.04,0.05 0.04,0.04 0.04,0.05 0.02,0.03 0.02,0.03 0.01,0.03 0.02,0.03 0.01,0.03 0.01,0.03 0.01,0.04 0.01,0.03 0.01,0.04 0.01,0.03 0.01,0.04 v 0.04 l 0.01,0.05 v 0.04 0.04 l 0.01,0.05 c 0,1 -0.95,1 -1.8,1 h -29.64 c -0.8,0 -1.79,0 -1.79,-1 0,-1 0.9,-1 1.74,-1 z"
         inkscape:connector-curvature="0"
         style="fill:#000000;stroke-width:0" /><path
         id="path6871"
         d="m 563.22,417.46 h 0.16 0.16 0.16 l 0.08,0.01 h 0.07 l 0.08,0.01 0.07,0.01 0.08,0.01 0.07,0.01 0.07,0.01 0.06,0.02 0.07,0.02 0.06,0.02 0.06,0.03 0.06,0.02 0.06,0.04 0.05,0.03 0.05,0.04 0.04,0.04 0.04,0.05 0.04,0.05 0.02,0.02 0.02,0.03 0.01,0.03 0.02,0.03 0.01,0.03 0.01,0.04 0.01,0.03 0.01,0.03 0.01,0.04 0.01,0.04 0.01,0.04 v 0.04 l 0.01,0.04 v 0.04 0.05 l 0.01,0.04 c 0,1 -0.9,1 -1.75,1 h -29.74 c -0.84,0 -1.74,0 -1.74,-1 0,-0.99 0.9,-0.99 1.74,-0.99 z"
         inkscape:connector-curvature="0"
         style="fill:#000000;stroke-width:0" /><path
         id="path6873"
         d="m 618.02,419.65 h -2.35 c -1.09,-6.88 -2.49,-11.31 -11.7,-11.31 h -7.57 v 14.05 h 2.74 c 4.78,0 5.27,-2.14 5.27,-5.83 h 2.35 v 14 h -2.35 c 0,-3.69 -0.44,-5.83 -5.27,-5.83 h -2.74 v 12.8 h 7.57 c 8.02,0 9.31,-3.64 10.11,-9.66 h 2.34 l -1.54,12 h -30.94 v -2.34 h 5.38 v -29.19 h -5.38 V 406 h 31.78 z"
         inkscape:connector-curvature="0"
         style="fill:#000000;stroke-width:0" /><path
         id="path6875"
         d="m 627.81,406.95 h 0.1 0.11 0.11 0.13 l 0.13,0.01 h 0.14 0.15 l 0.16,0.01 0.16,0.01 0.17,0.01 0.17,0.01 0.18,0.01 0.18,0.01 0.19,0.01 0.39,0.04 0.39,0.04 0.41,0.05 0.41,0.06 0.4,0.07 0.4,0.08 0.2,0.04 0.19,0.05 0.2,0.05 0.18,0.06 0.19,0.05 0.18,0.06 c 2.57,0.91 3.06,2.58 3.06,3.63 0,1.92 -1.92,3.07 -4.32,3.07 v -0.98 c 1.53,0 2.82,-0.77 2.82,-2.09 0,-3.38 -5.89,-3.38 -7.39,-3.38 h -1.7 c 1.42,5.05 5.29,5.47 6.27,5.47 v 0.98 c -4.19,0 -9.83,-3.21 -9.83,-9.17 0,-3.53 2.19,-6.56 6.27,-6.56 5.89,0 8.65,3.45 8.65,3.94 0,0.21 -0.31,0.59 -0.59,0.59 -0.21,0 -0.28,-0.07 -0.56,-0.34 -2.72,-3.21 -6.8,-3.21 -7.43,-3.21 -2.09,0 -3.48,1.39 -3.48,4.22 0,0.49 0,1.18 0.41,3.1 z"
         inkscape:connector-curvature="0"
         style="fill:#000000;stroke-width:0" /></g>  </g>
  <g
     id="g7139"
     transform="translate(-15.9649,30.404177)"
     style="fill:#ff0000">
    <g
       id="g7141"
       transform="matrix(0.21428571,0,0,-0.21428571,-37.5,199.5)"
       xml:space="preserve"
       stroke-miterlimit="10.433"
       font-style="normal"
       font-variant="normal"
       font-weight="normal"
       font-stretch="normal"
       font-size-adjust="none"
       letter-spacing="normal"
       word-spacing="normal"
       style="font-style:normal;font-variant:normal;font-weight:normal;font-stretch:normal;letter-spacing:normal;word-spacing:normal;text-anchor:start;fill:#ff0000;fill-opacity:1;fill-rule:evenodd;stroke:#000000;stroke-linecap:butt;stroke-linejoin:miter;stroke-miterlimit:10.43299961;stroke-dasharray:none;stroke-dashoffset:0;stroke-opacity:1"><path
         d="m 472.64,421.04 0.03,0.13 0.03,0.15 0.05,0.17 0.04,0.18 0.06,0.19 0.06,0.21 0.06,0.21 0.07,0.23 0.08,0.23 0.09,0.24 0.1,0.25 0.1,0.24 0.11,0.25 0.12,0.25 0.13,0.25 0.14,0.25 0.15,0.24 0.15,0.24 0.17,0.23 0.18,0.22 0.18,0.22 0.2,0.2 0.21,0.19 0.22,0.18 0.23,0.16 0.25,0.14 0.12,0.07 0.13,0.06 0.13,0.05 0.14,0.05 0.14,0.05 0.14,0.04 0.14,0.03 0.15,0.03 0.15,0.02 0.16,0.02 0.16,0.01 h 0.16 c 0.25,0 1.45,0 2.49,-0.65 -1.4,-0.25 -2.39,-1.49 -2.39,-2.68 0,-0.8 0.54,-1.75 1.89,-1.75 1.1,0 2.69,0.9 2.69,2.89 0,2.59 -2.94,3.29 -4.63,3.29 -2.89,0 -4.64,-2.64 -5.23,-3.79 -1.25,3.29 -3.94,3.79 -5.38,3.79 -5.18,0 -8.02,-6.43 -8.02,-7.67 0,-0.5 0.5,-0.5 0.6,-0.5 0.39,0 0.54,0.1 0.64,0.54 1.7,5.29 4.98,6.53 6.68,6.53 0.95,0 2.69,-0.45 2.69,-3.33 0,-1.55 -0.85,-4.89 -2.69,-11.86 -0.8,-3.09 -2.54,-5.18 -4.73,-5.18 -0.3,0 -1.45,0 -2.49,0.65 1.24,0.25 2.34,1.29 2.34,2.69 0,1.34 -1.1,1.74 -1.85,1.74 -1.49,0 -2.73,-1.3 -2.73,-2.89 0,-2.29 2.48,-3.29 4.68,-3.29 3.28,0 5.08,3.49 5.23,3.79 0.6,-1.85 2.39,-3.79 5.38,-3.79 5.13,0 7.97,6.43 7.97,7.67 0,0.5 -0.45,0.5 -0.6,0.5 -0.45,0 -0.55,-0.2 -0.65,-0.55 -1.64,-5.33 -5.03,-6.52 -6.62,-6.52 -1.95,0 -2.74,1.59 -2.74,3.29 0,1.09 0.29,2.19 0.85,4.38 z"
         id="path7143"
         inkscape:connector-curvature="0"
         style="fill:#ff0000;stroke-width:0" /><path
         d="m 501.99,410.12 v 0.71 l -0.02,0.68 -0.03,0.66 -0.04,0.64 -0.06,0.62 -0.08,0.59 -0.09,0.58 -0.11,0.56 -0.12,0.55 -0.15,0.53 -0.17,0.51 -0.19,0.5 -0.21,0.49 -0.24,0.48 -0.26,0.47 -0.14,0.24 -0.15,0.23 c -1.07,1.6 -3.24,2.99 -6.03,2.99 v -0.97 c 1.89,0 3.7,-1.15 4.33,-3.18 0.56,-1.88 0.59,-4.39 0.59,-7.42 0,-2.58 0,-5.17 -0.45,-7.36 -0.7,-3.17 -3.07,-3.94 -4.47,-3.94 v 0 c -1.6,0 -3.73,0.94 -4.43,3.8 -0.49,2.06 -0.49,4.92 -0.49,7.5 0,2.54 0,5.19 0.53,7.11 0.73,2.76 2.96,3.49 4.39,3.49 v 0.97 c -8.09,0 -8.09,-9.52 -8.09,-12.03 0,-2.51 0,-11.82 8.09,-11.82 8.09,0 8.09,9.31 8.09,11.82 z"
         id="path7145"
         inkscape:connector-curvature="0"
         style="fill:#ff0000;stroke-width:0" /></g>  </g>
  <g
     id="g2990"
     transform="matrix(0.21259119,0,0,0.21259119,102.91428,38.045399)">
    <g
       id="content-6"
       transform="matrix(1.0629921,0,0,-1.0629921,-186.02362,789.27165)"
       xml:space="preserve"
       stroke-miterlimit="10.433"
       font-style="normal"
       font-variant="normal"
       font-weight="normal"
       font-stretch="normal"
       font-size-adjust="none"
       letter-spacing="normal"
       word-spacing="normal"
       style="font-style:normal;font-variant:normal;font-weight:normal;font-stretch:normal;letter-spacing:normal;word-spacing:normal;text-anchor:start;fill:none;stroke:#000000;stroke-width:1.32753491;stroke-linecap:butt;stroke-linejoin:miter;stroke-miterlimit:10.43299961;stroke-dasharray:none;stroke-dashoffset:0;stroke-opacity:1"><path
         d="m 491.54,419.86 h -2.35 c -1.09,-6.88 -2.48,-11.32 -11.7,-11.32 h -7.58 v 14.05 h 2.75 c 4.78,0 5.28,-2.14 5.28,-5.83 h 2.35 v 14 h -2.35 c 0,-3.69 -0.45,-5.83 -5.28,-5.83 h -2.75 v 12.8 h 7.58 c 8.03,0 9.31,-3.62 10.11,-9.66 h 2.34 l -1.55,12 h -30.93 v -2.34 h 5.39 v -29.19 h -5.39 v -2.34 h 31.79 z"
         id="path2993"
         inkscape:connector-curvature="0"
         style="fill:#000000;stroke-width:0" /><polygon
         points="494.97,424.02 494.97,422.7 508.83,422.7 508.83,424.02 "
         id="polygon2995"
         style="fill:#000000;stroke-width:0" /><path
         d="m 502.4,417.22 v 0 l 0.01,0.01 v 0 0.01 0 0.01 h 0.01 v 0.01 0.01 0 l 0.01,0.02 v 0.02 l 0.01,0.02 v 0.02 l 0.01,0.02 v 0.02 l 0.01,0.02 0.01,0.02 v 0.03 l 0.01,0.04 0.02,0.05 v 0.02 l 0.01,0.03 v 0.02 l 0.01,0.02 v 0.02 l 0.01,0.02 v 0.01 0.02 0.01 h 0.01 v 0.01 0.01 0 0.01 0 0.01 0 0 0 0.01 c 0,0.18 -0.14,0.5 -0.56,0.5 -0.7,0 -3.59,-0.29 -4.45,-0.36 -0.28,-0.03 -0.78,-0.07 -0.78,-0.8 0,-0.49 0.5,-0.49 0.9,-0.49 1.67,0 1.67,-0.24 1.67,-0.53 0,-0.23 -0.34,-1.62 -0.54,-2.43 l -0.8,-3.21 c -0.33,-1.18 -2.23,-8.81 -2.31,-9.26 -0.17,-0.85 -0.17,-1.3 -0.17,-1.71 0,-3.53 2.23,-5.75 5.12,-5.75 l 0.03,0.97 c -1.7,0 -2.67,1.5 -2.67,3.57 0,1.28 0.31,2.46 1.28,6.4 0.2,0.66 0.2,0.74 0.88,1.5 1.32,1.53 2.89,2.3 4.14,2.3 1.36,0 2.54,-1.02 2.54,-3.38 0,-1.43 -0.76,-4.98 -1.81,-7.01 -0.84,-1.7 -2.58,-3.38 -4.36,-3.38 v 0 l -0.03,-0.97 c 4.36,0 8.99,4.74 8.99,9.89 0,4.08 -2.82,5.82 -5.22,5.82 -1.82,0 -3.35,-1 -4.39,-1.91 z"
         id="path2997"
         inkscape:connector-curvature="0"
         style="fill:#000000;stroke-width:0" /></g>  </g>
  <path
     id="path4226-0-7"
     d="m 150.34521,109.22511 h 10.81388"
     style="fill:#ff0000;stroke:#ff0000;stroke-width:1.54483962px;stroke-linecap:round;stroke-linejoin:round;stroke-miterlimit:4;stroke-dasharray:none;stroke-opacity:1"
     inkscape:connector-curvature="0" />
  <path
     id="path4228-8-5"
     d="m 160.45908,106.37682 5.67246,2.84829 -5.67246,2.84831 z"
     style="fill:#ff0000;fill-opacity:1;fill-rule:evenodd;stroke:none"
     inkscape:connector-curvature="0" />
  <path
     id="path4266-8-3"
     d="M 150.34521,109.22511 V 98.700905"
     style="fill:none;stroke:#000080;stroke-width:1.54483962px;stroke-linecap:round;stroke-linejoin:round;stroke-miterlimit:4;stroke-dasharray:none;stroke-opacity:1"
     inkscape:connector-curvature="0" />
  <path
     id="path4268-6-5"
     d="m 147.49691,99.425032 2.8483,-5.696577 2.8483,5.696577 z"
     style="fill:#000080;fill-opacity:1;fill-rule:evenodd;stroke:none"
     inkscape:connector-curvature="0" />
  <g
     ns0:preamble="default_packages.tex"
     ns0:text="$z_0$\n"
     word-spacing="normal"
     letter-spacing="normal"
     font-size-adjust="none"
     font-stretch="normal"
     font-weight="normal"
     font-variant="normal"
     font-style="normal"
     stroke-miterlimit="10.433"
     xml:space="preserve"
     transform="matrix(1.0695713,0,0,-1.0695713,-147.99319,869.14141)"
     id="g3628"
     style="font-style:normal;font-variant:normal;font-weight:normal;font-stretch:normal;letter-spacing:normal;word-spacing:normal;text-anchor:start;fill:#000080;fill-opacity:1;fill-rule:evenodd;stroke:#000000;stroke-linecap:butt;stroke-linejoin:miter;stroke-miterlimit:10.43299961;stroke-dasharray:none;stroke-dashoffset:0;stroke-opacity:1"><path
       id="path3630"
       d="m 150.04,707.95 0.05,0.05 0.05,0.05 0.04,0.05 0.05,0.05 0.04,0.05 0.05,0.04 0.04,0.04 0.04,0.05 0.04,0.04 0.04,0.04 0.04,0.03 0.04,0.04 0.03,0.04 0.04,0.03 0.07,0.07 0.07,0.06 0.06,0.06 0.07,0.06 0.06,0.06 0.13,0.11 0.07,0.05 0.07,0.06 c 0,0.01 0.61,0.54 0.97,0.9 0.95,0.92 1.17,1.4 1.17,1.44 0,0.1 -0.09,0.1 -0.11,0.1 -0.07,0 -0.1,-0.02 -0.15,-0.11 -0.3,-0.48 -0.51,-0.64 -0.75,-0.64 -0.24,0 -0.36,0.15 -0.51,0.32 -0.19,0.23 -0.36,0.43 -0.69,0.43 -0.74,0 -1.2,-0.93 -1.2,-1.14 0,-0.05 0.03,-0.11 0.12,-0.11 0.09,0 0.11,0.05 0.13,0.11 0.19,0.46 0.77,0.47 0.84,0.47 0.21,0 0.4,-0.07 0.63,-0.15 0.4,-0.15 0.51,-0.15 0.77,-0.15 -0.36,-0.42 -1.19,-1.14 -1.38,-1.3 l -0.9,-0.83 c -0.68,-0.67 -1.03,-1.24 -1.03,-1.31 0,-0.09 0.1,-0.09 0.12,-0.09 0.08,0 0.1,0.02 0.16,0.13 0.23,0.34 0.53,0.61 0.85,0.61 0.23,0 0.33,-0.09 0.58,-0.38 0.17,-0.21 0.35,-0.36 0.63,-0.36 0.99,0 1.57,1.26 1.57,1.53 0,0.04 -0.04,0.1 -0.12,0.1 -0.09,0 -0.11,-0.06 -0.14,-0.13 -0.23,-0.65 -0.87,-0.84 -1.2,-0.84 -0.19,0 -0.38,0.06 -0.58,0.13 -0.34,0.13 -0.49,0.17 -0.7,0.17 -0.02,0 -0.18,0 -0.27,-0.03 z"
       inkscape:connector-curvature="0"
       style="fill:#000080;fill-opacity:1;stroke-width:0" /><path
       id="path3632"
       d="m 156.95,707.85 0,0.14 0,0.14 -0.01,0.13 -0.01,0.12 -0.01,0.13 -0.01,0.12 -0.02,0.11 -0.02,0.11 -0.03,0.11 -0.03,0.11 -0.03,0.1 -0.04,0.1 -0.04,0.1 -0.05,0.09 -0.05,0.1 -0.03,0.04 -0.03,0.05 c -0.22,0.32 -0.65,0.6 -1.21,0.6 l 0,-0.2 c 0.38,0 0.74,-0.23 0.87,-0.63 0.11,-0.38 0.12,-0.88 0.12,-1.48 0,-0.52 0,-1.03 -0.09,-1.47 -0.14,-0.63 -0.62,-0.78 -0.9,-0.78 l 0,0 c -0.32,0 -0.75,0.18 -0.89,0.76 -0.09,0.4 -0.09,0.97 -0.09,1.49 0,0.51 0,1.04 0.1,1.42 0.15,0.55 0.59,0.69 0.88,0.69 l 0,0.2 c -1.62,0 -1.62,-1.9 -1.62,-2.4 0,-0.5 0,-2.36 1.62,-2.36 1.62,0 1.62,1.86 1.62,2.36 z"
       inkscape:connector-curvature="0"
       style="fill:#000080;fill-opacity:1;stroke-width:0" /></g></svg>
